<svg data-name="Grupo 11682" xmlns="http://www.w3.org/2000/svg" width="659.566" height="517.161"><defs><clipPath id="a"><path data-name="Retângulo 6967" fill="none" d="M0 0h659.566v517.161H0z"/></clipPath><clipPath id="b"><path data-name="Retângulo 6865" fill="#fff" d="M0 0h659.566v517.162H0z"/></clipPath><clipPath id="c"><path data-name="Retângulo 6864" fill="#fff" d="M0 0h659.566v394.549H0z"/></clipPath><clipPath id="d"><path data-name="Retângulo 6929" fill="none" d="M0 0h659.566v517.162H0z"/></clipPath><clipPath id="e"><path data-name="Retângulo 6866" fill="none" d="M0 0h27.406v20.056H0z"/></clipPath><clipPath id="f"><path data-name="Retângulo 6867" fill="none" d="M0 0h21.413v36.17H0z"/></clipPath><clipPath id="g"><path data-name="Retângulo 6868" fill="none" d="M0 0h2.957v33.437H0z"/></clipPath><clipPath id="h"><path data-name="Retângulo 6869" fill="none" d="M0 0h10.992v36.567H0z"/></clipPath><clipPath id="i"><path data-name="Retângulo 6870" fill="none" d="M0 0h5.338v33.726H0z"/></clipPath><clipPath id="j"><path data-name="Retângulo 6871" fill="none" d="M0 0h27.531v11.976H0z"/></clipPath><clipPath id="k"><path data-name="Retângulo 6872" fill="none" d="M0 0h15.815v21.266H0z"/></clipPath><clipPath id="l"><path data-name="Retângulo 6873" fill="none" d="M0 0h10.654v53.448H0z"/></clipPath><clipPath id="m"><path data-name="Retângulo 6874" fill="none" d="M0 0h7.271v36.581H0z"/></clipPath><clipPath id="n"><path data-name="Retângulo 6875" fill="none" d="M0 0h12.198v32.675H0z"/></clipPath><clipPath id="o"><path data-name="Retângulo 6876" fill="none" d="M0 0h3.321v37.067H0z"/></clipPath><clipPath id="p"><path data-name="Retângulo 6905" fill="none" d="M0 0h35.031v22.496H0z"/></clipPath><clipPath id="q"><path data-name="Retângulo 6878" fill="none" d="M0 0h35.021v22.496H0z"/></clipPath><clipPath id="r"><path data-name="Retângulo 6877" fill="none" d="M0 0h34.941v20.493H0z"/></clipPath><clipPath id="s"><path data-name="Retângulo 6879" fill="none" d="M0 0h35.028v13.822H0z"/></clipPath><clipPath id="t"><path data-name="Retângulo 6881" fill="none" d="M0 0h12.284v7.021H0z"/></clipPath><clipPath id="u"><path data-name="Retângulo 6882" fill="none" d="M0 0h5.079v3.682H0z"/></clipPath><clipPath id="v"><path data-name="Retângulo 6883" fill="none" d="M0 0h7.248v4.329H0z"/></clipPath><clipPath id="w"><path data-name="Retângulo 6884" fill="none" d="M0 0h4.057v2.415H0z"/></clipPath><clipPath id="x"><path data-name="Retângulo 6885" fill="none" d="M0 0h2.655v2.153H0z"/></clipPath><clipPath id="y"><path data-name="Retângulo 6886" fill="none" d="M0 0h1.446v1.252H0z"/></clipPath><clipPath id="z"><path data-name="Retângulo 6888" fill="none" d="M0 0h2.651v2.153H0z"/></clipPath><clipPath id="A"><path data-name="Retângulo 6890" fill="none" d="M0 0h4.061v2.415H0z"/></clipPath><clipPath id="B"><path data-name="Retângulo 6892" fill="none" d="M0 0h1.45v1.252H0z"/></clipPath><clipPath id="C"><path data-name="Retângulo 6896" fill="none" d="M0 0h6.561v3.79H0z"/></clipPath><clipPath id="D"><path data-name="Retângulo 6897" fill="none" d="M0 0h3.133v2.454H0z"/></clipPath><clipPath id="E"><path data-name="Retângulo 6898" fill="none" d="M0 0h3.471v2.326H0z"/></clipPath><clipPath id="F"><path data-name="Retângulo 6899" fill="none" d="M0 0h2.755v1.55H0z"/></clipPath><clipPath id="G"><path data-name="Retângulo 6900" fill="none" d="M0 0h.914v1.059H0z"/></clipPath><clipPath id="H"><path data-name="Retângulo 6901" fill="none" d="M0 0h1.881v1.482H0z"/></clipPath><clipPath id="I"><path data-name="Retângulo 6922" fill="none" d="M0 0h35.031v22.81H0z"/></clipPath><clipPath id="J"><path data-name="Retângulo 6908" fill="none" d="M0 0h35.03v13.823H0z"/></clipPath><clipPath id="K"><path data-name="Retângulo 6910" fill="none" d="M0 0h12.283v7.021H0z"/></clipPath><clipPath id="L"><path data-name="Retângulo 6912" fill="none" d="M0 0h7.246v4.329H0z"/></clipPath><clipPath id="M"><path data-name="Retângulo 6913" fill="none" d="M0 0h6.561v3.791H0z"/></clipPath><clipPath id="N"><path data-name="Retângulo 6914" fill="none" d="M0 0h3.13v2.454H0z"/></clipPath><clipPath id="O"><path data-name="Retângulo 6915" fill="none" d="M0 0h3.472v2.326H0z"/></clipPath><clipPath id="P"><path data-name="Retângulo 6916" fill="none" d="M0 0h2.754v1.551H0z"/></clipPath><clipPath id="Q"><path data-name="Retângulo 6917" fill="none" d="M0 0h.915v1.059H0z"/></clipPath><clipPath id="R"><path data-name="Retângulo 6918" fill="none" d="M0 0h1.88v1.482H0z"/></clipPath><clipPath id="S"><path data-name="Retângulo 6923" fill="none" d="M0 0h79.25v139.339H0z"/></clipPath><clipPath id="T"><path data-name="Retângulo 6928" fill="none" d="M0 0h35.031v22.725H0z"/></clipPath><clipPath id="U"><path data-name="Retângulo 6925" fill="none" d="M0 0h35.028v22.725H0z"/></clipPath><clipPath id="V"><path data-name="Retângulo 6924" fill="none" d="M0 0h34.941v20.494H0z"/></clipPath><clipPath id="W"><path data-name="Retângulo 6926" fill="none" d="M0 0h35.031v13.822H0z"/></clipPath><clipPath id="X"><path data-name="Caminho 32807" d="m0 14.115 5.407 150.239L75.022 121.1l1.926 66.88 80.869 27.2 22.742-43.413-10.33-94.123L18.753.002Z" fill="none"/></clipPath><clipPath id="Y"><path data-name="Retângulo 6930" fill="none" d="M0 0h79.249v139.34H0z"/></clipPath><clipPath id="Z"><path data-name="Caminho 32853" d="m0 14.115 5.407 150.239 48.22-29.562 31.932 51.8 72.258 28.586 22.742-43.409-10.33-94.124L18.753 0Z" fill="none"/></clipPath><clipPath id="aa"><path data-name="Retângulo 6932" fill="none" d="M0 0h25.96v12.336H0z"/></clipPath><clipPath id="ab"><path data-name="Retângulo 6933" fill="none" d="M0 0h18.496v58.259H0z"/></clipPath><clipPath id="ac"><path data-name="Retângulo 6934" fill="none" d="M0 0h10.942v20.353H0z"/></clipPath><clipPath id="ad"><path data-name="Retângulo 6935" fill="none" d="M0 0h14.338v38.866H0z"/></clipPath><clipPath id="ae"><path data-name="Retângulo 6936" fill="none" d="M0 0h12.644v10.243H0z"/></clipPath><clipPath id="af"><path data-name="Retângulo 6965" fill="none" d="M0 0h21.27v13.563H0z"/></clipPath><clipPath id="ag"><path data-name="Retângulo 6938" fill="none" d="M0 0h21.259v13.563H0z"/></clipPath><clipPath id="ah"><path data-name="Retângulo 6937" fill="none" d="M0 0h21.216v12.443H0z"/></clipPath><clipPath id="ai"><path data-name="Retângulo 6939" fill="none" d="M0 0h21.269v8.393H0z"/></clipPath><clipPath id="aj"><path data-name="Retângulo 6941" fill="none" d="M0 0h7.458v4.263H0z"/></clipPath><clipPath id="ak"><path data-name="Retângulo 6942" fill="none" d="M0 0h3.084v2.236H0z"/></clipPath><clipPath id="al"><path data-name="Retângulo 6943" fill="none" d="M0 0h4.4v2.629H0z"/></clipPath><clipPath id="am"><path data-name="Retângulo 6944" fill="none" d="M0 0h2.464v1.466H0z"/></clipPath><clipPath id="an"><path data-name="Retângulo 6945" fill="none" d="M0 0h1.61v1.308H0z"/></clipPath><clipPath id="ao"><path data-name="Retângulo 6946" fill="none" d="M0 0h.878v.76H0z"/></clipPath><clipPath id="ap"><path data-name="Retângulo 6948" fill="none" d="M0 0h1.61v1.307H0z"/></clipPath><clipPath id="aq"><path data-name="Retângulo 6956" fill="none" d="M0 0h3.984v2.301H0z"/></clipPath><clipPath id="ar"><path data-name="Retângulo 6957" fill="none" d="M0 0h1.9v1.49H0z"/></clipPath><clipPath id="as"><path data-name="Retângulo 6958" fill="none" d="M0 0h2.108v1.413H0z"/></clipPath><clipPath id="at"><path data-name="Retângulo 6959" fill="none" d="M0 0h1.673v.941H0z"/></clipPath><clipPath id="au"><path data-name="Retângulo 6960" fill="none" d="M0 0h.556v.643H0z"/></clipPath><clipPath id="av"><path data-name="Retângulo 6961" fill="none" d="M0 0h1.142v.9H0z"/></clipPath></defs><g data-name="Grupo 11674" clip-path="url(#a)"><g data-name="Grupo 11369"><g data-name="Grupo 11368" clip-path="url(#b)" transform="translate(0 -.002)"><g data-name="Grupo 11367" opacity=".22"><g data-name="Grupo 11366"><g data-name="Grupo 11365" clip-path="url(#c)" transform="translate(0 122.613)"><path data-name="Caminho 32556" d="M659.567 228.236 343.018.002 0 172.206l364.519 222.343" fill="#fff"/></g></g></g></g></g><path data-name="Caminho 32557" d="m296.385.003-37.444 21.766 64.6 37.544 37.444-21.771Z" fill="#4b83ad"/><path data-name="Caminho 32558" d="m258.941 21.769.176 96.908 64.6 37.544-.176-96.908Z" fill="#172233"/><path data-name="Caminho 32559" d="m323.546 59.313.176 96.908 37.439-21.771-.176-96.908Z" fill="#003854"/><path data-name="Caminho 32560" d="m327.23 145.291 29.847-17.354V47.026L327.23 64.38Z" fill="#4b83ad"/><path data-name="Caminho 32561" d="m213.42 47.622 64.6 37.544 37.444-21.771-64.6-37.544Z" fill="#4b83ad"/><path data-name="Caminho 32562" d="m213.42 47.621.176 96.908 64.6 37.544-.176-96.908Z" fill="#003854"/><path data-name="Caminho 32563" d="m278.024 85.165.176 96.908 37.443-21.771-.175-96.908Z" fill="#003854"/><g data-name="Grupo 11560"><g data-name="Grupo 11559" clip-path="url(#d)" transform="translate(0 -.002)"><path data-name="Caminho 32564" d="M331.945 102.8a5.207 5.207 0 0 0-2.363 4.093c0 1.5 1.069 2.108 2.379 1.352a5.207 5.207 0 0 0 2.363-4.089c0-1.5-1.069-2.111-2.378-1.355" fill="#ea5a44"/><path data-name="Caminho 32565" d="m283.066 170.517 29.847-17.354V72.247L283.066 89.6Z" fill="#4b83ad"/><path data-name="Caminho 32566" d="M308.148 112.984a5.208 5.208 0 0 0-2.363 4.093c0 1.5 1.069 2.108 2.379 1.352a5.207 5.207 0 0 0 2.363-4.089c0-1.5-1.069-2.111-2.378-1.356" fill="#ea5a44"/><g data-name="Grupo 11372" opacity=".15" style="mix-blend-mode:multiply;isolation:isolate"><g data-name="Grupo 11371"><g data-name="Grupo 11370" clip-path="url(#e)" transform="translate(512.862 176.544)"><path data-name="Caminho 32567" d="M16.281 4.137a129.235 129.235 0 0 0-13.37 9.017 7.994 7.994 0 0 0-2.653 2.982 2.92 2.92 0 0 0 .881 3.593c1.12.664 2.545.192 3.743-.317a92.875 92.875 0 0 0 16.306-8.951c3.023-2.079 6.2-4.873 6.216-8.542.016-5.162-10.209 1.668-11.124 2.219" fill="#6c90b1"/></g></g></g><path data-name="Caminho 32568" d="m538.165 171.373-4.478 2.547s-1.935 4.386-2.007 4.321c-3.483 2.321-2.351 4.038-.69 4.47 1.025.266 4.264-1.516 5.462-2.25l1.228-1.328 2.867-3.19a1.978 1.978 0 0 0 .04-2Z" fill="#172233"/><path data-name="Caminho 32569" d="m519.842 188.09-4.5 3.908c-.856.75-3.292 1.957-3.573 3.06l-.043.164c.108 2.783 4.691 1.779 4.691 1.779l7.459-3.392a3.243 3.243 0 0 0 1.48-2.093l-.77-3.22Z" fill="#172233"/><path data-name="Caminho 32570" d="m524.909 132.728-10.7-2.483s.363 8.446 1.212 13.871c.608 3.891 3.451 15.346 3.451 15.346l14.483 15.311s3.847 2.026 5.583-2.983l-12.257-18.093Z" fill="#293c5c"/><g data-name="Grupo 11375" opacity=".3"><g data-name="Grupo 11374"><g data-name="Grupo 11373" clip-path="url(#f)" transform="translate(517.528 139.062)"><path data-name="Caminho 32571" d="M7.916.001a6.865 6.865 0 0 1-6.812.528c-.137.654 2.086.274 1.5 2.861-.743 3.27-2 9.618-2.606 11.431.726 3.07 1.349 5.581 1.349 5.581l14.483 15.31s3.8 2.188 5.583-2.982L9.156 14.637Z" fill="#1d1d1b"/></g></g></g><path data-name="Caminho 32572" d="m520.685 130.819.362 9.381-3.6 22.638 1.435 26.143c4.162 3.349 6.2.592 6.2.592l1.756-26.037s3.051-13.342 5.63-19.548a29.028 29.028 0 0 0 1.857-12.756Z" fill="#293c5c"/><g data-name="Grupo 11378" opacity=".07"><g data-name="Grupo 11377"><g data-name="Grupo 11376" clip-path="url(#g)" transform="translate(517.445 156.551)"><path data-name="Caminho 32573" d="M1.905 15.208c-.27-3.661-.455-7.322-.676-10.987-.084-1.4-.263-2.817-.228-4.222l-1 6.289 1.435 26.143a9.236 9.236 0 0 0 1.522 1.006c-.839-5.968-.61-12.243-1.052-18.229"/></g></g></g><path data-name="Caminho 32574" d="m506.38 133.66-.247 3.365a1.229 1.229 0 0 0 .733-.342 10.416 10.416 0 0 0 .775 3.3.664.664 0 0 0 .775-.352l.188.344c1.139-.07.524-1.4.524-1.4l-.034-1.023.365 1.251c.808.26.77-.762.77-.762l-.383-1.741a26.839 26.839 0 0 0 .984-2.511 26.351 26.351 0 0 0 .3-2.641l-2.8-1.492Z" fill="#f7b7a9"/><path data-name="Caminho 32575" d="M513.212 98.497c-1.86 2.441-2.533 16.751-2.533 16.751l-2.987 15.33c1.17 1.978 3.793 1.633 3.793 1.633l4.939-15.286 2.26-12.195a8.368 8.368 0 0 1-1.7-.04c-1.91-.258 1.568-9.023 1.568-9.023a8.464 8.464 0 0 0-5.34 2.829" fill="#3180a9"/><g data-name="Grupo 11381" opacity=".15"><g data-name="Grupo 11380"><g data-name="Grupo 11379" clip-path="url(#h)" transform="translate(507.69 95.668)"><path data-name="Caminho 32576" d="M5.523 2.829C3.663 5.27 2.99 19.58 2.99 19.58L.003 34.91c1.17 1.978 3.793 1.633 3.793 1.633l4.939-15.286 2.26-12.195a8.368 8.368 0 0 1-1.7-.04c-1.91-.258 1.568-9.023 1.568-9.023a8.464 8.464 0 0 0-5.34 2.829" fill="#243551"/></g></g></g><path data-name="Caminho 32577" d="M508.224 128.787c-.053-.042-.107-.083-.159-.129l-.375 1.923c1.17 1.978 3.793 1.633 3.793 1.633l.6-1.857a5.976 5.976 0 0 1-2.184-.668 4.4 4.4 0 0 1-1.677-.9" fill="#5a99ba"/><path data-name="Caminho 32578" d="m531.566 99.07-5.221-3.149-3.908-1.613c-4.7-1.255-7.576.817-9.279 4.053-1.911 3.631-1.412 9.942-1.412 9.942l1.259 24.791 7.131 3.065a14.164 14.164 0 0 0 12.321-.441l2.556-1.35.567-28.925a6.591 6.591 0 0 0-4.012-6.374" fill="#3180a9"/><path data-name="Caminho 32579" d="M533.892 106.698c-1.458-7.381-7.988-11.461-16.5-11.872a1.9 1.9 0 0 1-.6-.218 8.258 8.258 0 0 0-3.63 3.755c-1.91 3.631-1.412 9.942-1.412 9.942l1.258 24.79 7.131 3.065a14.165 14.165 0 0 0 12.321-.44l2.556-1.35.108-21.231c-.936-.467-.947-5.022-1.228-6.442" fill="#3180a9"/><g data-name="Grupo 11384" opacity=".15"><g data-name="Grupo 11383"><g data-name="Grupo 11382" clip-path="url(#i)" transform="translate(529.783 102.272)"><path data-name="Caminho 32580" d="M4.11 4.424A13.482 13.482 0 0 0 2.372.001 17.16 17.16 0 0 0 .32 12.271a123.993 123.993 0 0 1 1.27 13.551c.189 2.676.367 5.293.368 7.9.236-.1.487-.158.716-.28l2.556-1.351.108-21.23c-.936-.467-.947-5.023-1.228-6.442" fill="#243551"/></g></g></g><path data-name="Caminho 32581" d="m517.685 101.658.608 4.155c3.107-2.4 3.408-1.986 5.953-4.984a20.373 20.373 0 0 1 3.008-2.492c-2.982-2.481-4.281-2.218-9.064-2.448-.225-.011-.505 5.77-.505 5.77" fill="#fff"/><path data-name="Caminho 32582" d="M518.875 96.209a3.737 3.737 0 1 0 7.468-.289l-.236-6.108-7.468.288Z" fill="#ecafa1"/><path data-name="Caminho 32583" d="M516.012 91.159a5.956 5.956 0 0 0 6.022 5.879 5.85 5.85 0 0 0 5.451-6.214l-.253-6.548-11.547-1.6Z" fill="#f6b6a8"/><path data-name="Caminho 32584" d="m515.599 85.112 6.3-.244a4.248 4.248 0 0 1 4.269 4.266l.152 5.54a13.832 13.832 0 0 0 2.816-7.829l-.112-2.909-13.47.078Z" fill="#80524f"/><path data-name="Caminho 32585" d="m536.021 135.587-.155-.487-.059.459-.037-.006.021.128-.533 4.169.949 4.893s1.062-.056.836-1.544l-.318-1.694.05.123.014.084v.015h.021l.768 1.914.157 1.859-.027.608a.544.544 0 0 0 1.024.279l.71-1.507 1.287-1.268.4-2.056-1.306-5.453Z" fill="#f7b7a9"/><path data-name="Caminho 32586" d="M531.378 100.389c-2.428.483-1.143 8.8-1.143 8.8l3.317 11.663 2.136 15.634c3.22 1.759 4.206-.706 4.206-.706l-.654-16.931-2.394-12.407s-1.323-6.883-5.469-6.057" fill="#3180a9"/><path data-name="Caminho 32587" d="M539.811 134.083c-.123.038-.245.069-.367.1a4.428 4.428 0 0 1-4.141.236l.383 2.073c3.221 1.759 4.206-.707 4.206-.707l-.076-1.7Z" fill="#5a99ba"/><path data-name="Caminho 32588" d="m528.15 79.012-.056-.03a10.339 10.339 0 0 0-10.329.4l-.923.6a4.867 4.867 0 0 0-2.021 2.526l-2.288 3.856a1.864 1.864 0 0 0 .727 2.588l4.322 2.318a2.939 2.939 0 0 0 2.555.11l4.723-2.029a10.313 10.313 0 0 0 2.7-1.2l.922-.6a4.936 4.936 0 0 0-.332-8.54" fill="#fed561"/><path data-name="Caminho 32589" d="m527.982 79.329-.056-.029a9.982 9.982 0 0 0-9.973.385l-.917.595a4.522 4.522 0 0 0-1.891 2.378l-2.307 3.888a1.508 1.508 0 0 0 .59 2.09l4.32 2.319a2.587 2.587 0 0 0 2.247.1l4.71-2.024a9.993 9.993 0 0 0 2.67-1.173l.919-.594a4.58 4.58 0 0 0-.306-7.925" fill="#fbba33"/><path data-name="Caminho 32590" d="M529.622 82.496v-.015a4.11 4.11 0 0 0-.142-.605c-.46-1.71-2.149-6.365-6.883-6.182-7.321.283-7.015 6.943-6.962 8.3a4.113 4.113 0 0 0 2.166 3.452 9.048 9.048 0 0 0 9.131-.3l.8-.5a4.124 4.124 0 0 0 1.887-4.15Z" fill="#fec82f"/><path data-name="Caminho 32591" d="M528.682 79.407c-.74-.05-2.293-1.189-5.327.753s-2.932 4.376-3.158 5.443a16.613 16.613 0 0 0-.191 2.9l.377-.124a14.6 14.6 0 0 1 .826-4.3c.607-1.959 3.385-5.376 7.636-3.975 0 0 .111-.673-.164-.691" fill="#fee7a6"/><path data-name="Caminho 32592" d="M523.866 75.763c-3.417.239-6.079 3.032-6.79 4.162a13.152 13.152 0 0 0-1.759 5.9c.988 2.078 4.689 2.679 4.689 2.679a12.416 12.416 0 0 1 1.3-5.622c1.242-2.541 3.04-3.233 5.372-3.77a5.232 5.232 0 0 1 2.149.417 6.412 6.412 0 0 0-2.028-2.492 5.219 5.219 0 0 0-2.929-1.27" fill="#fed561"/><path data-name="Caminho 32593" d="M523.434 100.913c-1.443 1.19-5.141 4.9-5.141 4.9l5.888-2.681-.055-1.416.8.735a6.8 6.8 0 0 0 3.34-5.375l-1.947-1.949c.3 3.223-1.807 4.9-2.881 5.785" fill="#72abcf"/><path data-name="Caminho 32594" d="M517.778 95.312a14.6 14.6 0 0 0-1.231 4.332l.8.1-.624 1.1a41.618 41.618 0 0 0 1.573 4.974c-.91-4.36.584-9.6.584-9.6a7.182 7.182 0 0 1-1.1-.9" fill="#72abcf"/><path data-name="Caminho 32595" d="M517.113 119.697c.171 4.516.807 15.508.807 15.508l.26.111s-.907-15.549-.819-21.212a31.833 31.833 0 0 1 .932-8.292l-.187-.5c-1.162 4.617-1.163 9.868-.992 14.386" fill="#72abcf"/><g data-name="Grupo 11387" opacity=".2" style="mix-blend-mode:multiply;isolation:isolate"><g data-name="Grupo 11386"><g data-name="Grupo 11385" clip-path="url(#j)" transform="translate(323.506 185.613)"><path data-name="Caminho 32596" d="M10.052.879a16.746 16.746 0 0 0-5.964.425 5.685 5.685 0 0 0-4.024 4.07 5.449 5.449 0 0 0 2.865 5.369 11.718 11.718 0 0 0 6.28 1.222 29.1 29.1 0 0 0 18.322-7.321A20.489 20.489 0 0 0 10.917.333Z" fill="#6c8cad"/></g></g></g><path data-name="Caminho 32597" d="M352.672 127.175c-1.147.933-.5 2.085.085 2.2s1-.216 2.086-1.621.74-1.919.74-1.919c-1.488-.2-1.762.4-2.911 1.334" fill="#1a1a1a"/><path data-name="Caminho 32598" d="M363.82 130.183a20.516 20.516 0 0 1-3.919-1.8l1.257-.049a.734.734 0 0 0 .706-.895 17.389 17.389 0 0 1-4.479-.937 2.777 2.777 0 0 0-2.521-.035c-3.711-.445-2.4 1.482-2.4 1.482a16.831 16.831 0 0 1 2.177 2.19 12.589 12.589 0 0 0 5.11 1.957 4.525 4.525 0 0 0 3.226-.813c1.03.035 1.21-1.018.845-1.105" fill="#f7b7a9"/><path data-name="Caminho 32599" d="m351.864 128.313 1.89.847a2.632 2.632 0 0 1 1.844-2.928l-2.026-.686c-.961.037-1.708 2.768-1.708 2.768" fill="#e4e4e4"/><path data-name="Caminho 32600" d="M339.968 102.952a6.605 6.605 0 0 0-5.63-2.978s3.229 9.044 1.275 9.24a8.406 8.406 0 0 1-1.73-.021l4.658 6.306 1.687 11.3 12.529 2.574a1.291 1.291 0 0 1-.117-1.13c.382-1.085 1.582-2.553 2.943-2.409l-10.441-5.815s-3.418-14.483-5.173-17.069" fill="#3180a9"/><g data-name="Grupo 11390" opacity=".07"><g data-name="Grupo 11389"><g data-name="Grupo 11388" clip-path="url(#k)" transform="translate(337.446 108.11)"><path data-name="Caminho 32601" d="M15.815 19.054c-.829-.324-4.609-2.282-5.468-2.837-2.381-.956-4.872-2.752-5.483-5.064C3.797 9.261 2.701 2.46 2.046.964a7.827 7.827 0 0 1-.684-.415L1.209.408c-2.652-2.455-.113 6.98-.113 6.98l1.687 11.3 12.529 2.574a1.291 1.291 0 0 1-.117-1.13 4.013 4.013 0 0 1 .62-1.081"/></g></g></g><path data-name="Caminho 32602" d="m335.842 192.327-4.579-4.241-6.085 1.156.1 2.528a2.017 2.017 0 0 0 1.1 1.719l7.879 4s3.506.823 4.66-1.858l-.038-.173c-.258-1.165-2.161-2.313-3.031-3.128" fill="#172233"/><path data-name="Caminho 32603" d="m347.24 186.147-4.574-4.241-6.086 1.156.1 2.528a2.018 2.018 0 0 0 1.1 1.718l4.185 1.251s4.55 2.839 6.468 2.11c1.686-.641 3.061-2.478-1.186-4.523" fill="#172233"/><path data-name="Caminho 32604" d="M340.535 135.003c-1.937 1.212-2.125-.637-3.979.365-4.995 2.7-17.012 1.845-17.134 1.845l4.92 52.12c6.774 3.274 8.3-1.163 8.3-1.163l-.048-39.36 3.477 35.085c6.293 1.674 7.412-1.9 7.412-1.9s-1.019-26.833-1.825-36.349c-.2-2.4-1.128-10.64-1.128-10.64" fill="#293c5c"/><g data-name="Grupo 11393" opacity=".2"><g data-name="Grupo 11392"><g data-name="Grupo 11391" clip-path="url(#l)" transform="translate(319.423 137.138)"><path data-name="Caminho 32605" d="m0 .076 4.92 52.12a11.4 11.4 0 0 0 3.683 1.252 70.792 70.792 0 0 1-2.493-19.74c-.065-8.963-.779-18.226 2.074-26.867a4.755 4.755 0 0 1 2.47-2.879C10.209 2.428 9.807 1.072 9.476 0A71.211 71.211 0 0 1 0 .077" fill="#1d1d1b"/></g></g></g><g data-name="Grupo 11396" opacity=".2"><g data-name="Grupo 11395"><g data-name="Grupo 11394" clip-path="url(#m)" transform="translate(332.782 147.756)"><path data-name="Caminho 32606" d="M.001-.001C-.06 3.073 2.232 17.346 2.229 20.464c0 1.837.008 3.68.058 5.52l1.006 10.155a10.4 10.4 0 0 0 3.978.383c-.879-4.794-1.692-9.6-2.4-14.422C4.677 20.782 1.384 5.238.003 0" fill="#1d1d1b"/></g></g></g><path data-name="Caminho 32607" d="m317.951 143.275-.278 5.7.792 1.989 1.527 1.027.995 1.375a.555.555 0 0 0 .973-.475l-.142-.6-.194-1.888.454-2.3Z" fill="#f7b7a9"/><path data-name="Caminho 32608" d="M338.569 120.942c-.039-6.254.123-12.072-1.271-18.1a16.409 16.409 0 0 1-4.7-1.923 2.1 2.1 0 0 1-.851-1.06l-2.9.112-3.366.723-5.33 3.784a6.648 6.648 0 0 0-3.541 6.723l4.507 25.555s.644 4.117 9.713 2.536c4.984-.868 7.667-2.393 9.051-3.535a86.451 86.451 0 0 1-1.318-14.813" fill="#e4e4e4"/><path data-name="Caminho 32609" d="M338.465 104.698c-1.023-2.83-2.1-4.818-6.069-4.649 3.192 5.162-.389 10.319-.424 13.756-.033 3.453.982 3.111 1.134 6.561.2 4.61 1.462 9.037 1.582 13.648 1.254.561-2.9 7.681-1.174 7.911 2.266.3 7.829-4.625 7.829-4.625l-1.472-15.3s-.413-14.556-1.406-17.3" fill="#3180a9"/><path data-name="Caminho 32610" d="M326.903 105.391a10.328 10.328 0 0 1-2.323-4.387l-4.423 3.472a6.648 6.648 0 0 0-3.541 6.723l3.648 30.383s.812.856 8.249 1.3c3.461.206 9.168-1.463 9.254-3.633-1.175-6.52-4.524-26.327-4.524-26.327s-5.42-6.256-6.341-7.534" fill="#3180a9"/><g data-name="Grupo 11399" opacity=".07"><g data-name="Grupo 11398"><g data-name="Grupo 11397" clip-path="url(#n)" transform="translate(316.314 110.329)"><path data-name="Caminho 32611" d="M6.029 5.214a6.84 6.84 0 0 1-5.7-5.215A7.581 7.581 0 0 0 .297.87s-1.861 25.376 3.665 30.825c1.474 1.452 8.232.86 8.232.86s-2.292-4.444-3.656-15.694C7.999 12.414 7.46 5.407 6.025 5.214"/></g></g></g><path data-name="Caminho 32612" d="M318.02 148.023a16.956 16.956 0 0 1 1.955.269c.2.009.4.013.6 0a5.844 5.844 0 0 1 1.475.038v-.017l-.142-6.357-3.96 1.314Z" fill="#f7b7a9"/><path data-name="Caminho 32613" d="m321.022 147.396 1.056.7v1.754c.056 1.533 1.127 1.389 1.127 1.389l.026-5.075-1.505-4.64Z" fill="#f7b7a9"/><path data-name="Caminho 32614" d="M317.975 141.28c-.128-.009-.256-.015-.386-.029h-.007l.262 2.156s1.436 1.843 4.326-.523l-.007-2.148a4.5 4.5 0 0 1-4.188.547" fill="#e4e4e4"/><path data-name="Caminho 32615" d="M320.076 105.407c-4.3.172-4.327 7.094-4.327 7.094l-.181 14.632 1.525 15.014a4.482 4.482 0 0 0 5.376-.65v-15.2l.844-12.682s.047-8.339-3.236-8.208" fill="#3180a9"/><g data-name="Grupo 11402" opacity=".07"><g data-name="Grupo 11401"><g data-name="Grupo 11400" clip-path="url(#o)" transform="translate(315.565 105.66)"><path data-name="Caminho 32616" d="M.183 6.842 0 21.474l1.525 15.014a4.109 4.109 0 0 0 1.8.579c-1.076-6.02-.792-12.3-.82-18.383C2.478 12.758.868 5.654 3.324.002.213 1.27.187 6.842.187 6.842"/></g></g></g><path data-name="Caminho 32617" d="M325.502 101.104c.126 3.26 5.865 4.118 5.865 4.118 1.195-.624 1.485-2.389 1.408-4.4l-.23-5.948-6.737.26Z" fill="#f7b7a9"/><path data-name="Caminho 32618" d="M325.786 95.582a2.462 2.462 0 0 1 .9 1.625c.438 3.248 1.43 6.234 4.458 7.026a9.571 9.571 0 0 0 1.365-.585 8.758 8.758 0 0 0 .268-2.824l-.23-5.948-6.737.26Z" fill="#eaaea0"/><path data-name="Caminho 32619" d="M324.505 96.164c.118 3.044 5.624 4.524 5.624 4.524 2.938-.114 4.44-1.525 4.32-4.623l-.3-7.8-10.473 2.289Z" fill="#f7b7a9"/><path data-name="Caminho 32620" d="M332.704 85.177c-4.283-2.464-7.834-.8-10.2 2.433-1.155 1.579-.2 4.633.214 6.066a11.1 11.1 0 0 0 2.915 4.963l.114-5.2.65 1.009.849-.674s-.467-2.187-.463-2.554c.014-1.252 7.415-1.718 7.415-1.718s3.177-1.633-1.494-4.321" fill="#ce994a"/><path data-name="Caminho 32621" d="M323.958 93.772c-.117 1.342.824 2.779 1.884 2.242l-.1-2.579s-1.626-1.483-1.784.337" fill="#f7b7a9"/><path data-name="Caminho 32622" d="m325.592 99.375-2.015 2.3s.134 2.954 1.751 4.555l.9-.282-.459 2.027 6.586 3.915s-2.779-3.735-3.579-4.864c-3.777-5.334-3.182-7.656-3.182-7.656" fill="#72abcf"/><path data-name="Caminho 32623" d="m333.335 99.646-.59.39.027.707s1.954 2.7-.605 11.16a16.117 16.117 0 0 0 3.086-5.61l-.689-1.392.9-.867s.2-2.684-1.12-4.059Z" fill="#72abcf"/><path data-name="Caminho 32624" d="M335.266 87.16a4.37 4.37 0 0 0-1.989-2.126l-.868-.47a9.3 9.3 0 0 0-9.3.359l-.047.03a4.441 4.441 0 0 0 .294 7.686l.869.47a9.292 9.292 0 0 0 2.505.887l4.379 1.49a2.655 2.655 0 0 0 2.285-.276l3.715-2.38a1.681 1.681 0 0 0 .474-2.373Z" fill="#fed561"/><path data-name="Caminho 32625" d="M334.984 87.317a4.06 4.06 0 0 0-1.86-2l-.867-.47a8.982 8.982 0 0 0-8.972.346l-.049.031a4.12 4.12 0 0 0 .276 7.13l.867.47a8.962 8.962 0 0 0 2.476.866l4.366 1.49a2.326 2.326 0 0 0 2.008-.243l3.715-2.379a1.358 1.358 0 0 0 .384-1.917Z" fill="#fbba33"/><path data-name="Caminho 32626" d="M327.818 81.59c-4.258.164-5.452 4.458-5.745 6.024a3.972 3.972 0 0 0-.086.554v.012a3.709 3.709 0 0 0 1.982 3.592l.755.4a8.134 8.134 0 0 0 8.211-.365 3.7 3.7 0 0 0 1.7-3.247c-.047-1.225-.233-7.222-6.821-6.967" fill="#fec82f"/><path data-name="Caminho 32627" d="M327.448 85.649a4.954 4.954 0 0 0-4.833-.306c-.247.036-.1.632-.1.632 3.717-1.553 6.447 1.321 7.126 3.035a13.125 13.125 0 0 1 1.04 3.8l.348.086a15.075 15.075 0 0 0-.372-2.588 5.946 5.946 0 0 0-3.21-4.663" fill="#fee7a6"/><path data-name="Caminho 32628" d="M326.683 81.74a4.705 4.705 0 0 0-2.54 1.343 5.781 5.781 0 0 0-1.647 2.377 4.689 4.689 0 0 1 1.9-.522c2.128.318 3.789.815 5.078 3.007a11.177 11.177 0 0 1 1.555 4.958s3.277-.8 4.02-2.729a11.823 11.823 0 0 0-1.988-5.167 8.878 8.878 0 0 0-6.379-3.264" fill="#fed561"/><path data-name="Caminho 32629" d="M332.167 111.902a235.865 235.865 0 0 1 3.763 29.513s-3-26.752-3.763-29.513" fill="#5a99ba"/><path data-name="Caminho 32630" d="m326.681 289.848 1.263 30.479L521.635 198.3l-1.263-30.479Z" fill="#23344f"/><path data-name="Caminho 32631" d="m297.864 274.558 1.263 30.479 28.816 15.29-1.267-30.478Z" fill="#293c5c"/><path data-name="Caminho 32632" d="m297.864 274.558 28.812 15.29 193.7-122.026-28.816-15.291Z" fill="#8097a5"/><path data-name="Caminho 32633" d="M492.2 144.759 292.7 270.444l34.131 18.11 199.5-125.685c1.607-1.012 3.095-1.156 4.2-.572l-34.131-18.11c-1.1-.585-2.59-.44-4.2.572" fill="#72abcf"/><path data-name="Caminho 32634" d="M525.926 166.438a7.055 7.055 0 0 0-2.985 5.665c.084 2.035 1.555 2.8 3.291 1.711a7.054 7.054 0 0 0 2.981-5.662c-.084-2.035-1.555-2.8-3.287-1.713" fill="#3180a9"/><path data-name="Linha 91" fill="#72abcf" d="m496.396 144.187 34.131 18.11"/><path data-name="Caminho 32635" d="M468.697 202.494a7.063 7.063 0 0 0-2.986 5.665c.085 2.035 1.56 2.8 3.291 1.711a7.053 7.053 0 0 0 2.981-5.662c-.084-2.035-1.555-2.8-3.287-1.713" fill="#3180a9"/><path data-name="Caminho 32636" d="m526.401 164.572-199.5 125.685a9.766 9.766 0 0 0-4.13 7.838c.117 2.819 2.159 3.875 4.553 2.367l199.5-125.685a9.759 9.759 0 0 0 4.131-7.838c-.117-2.819-2.154-3.879-4.554-2.367M327.424 299.065c-1.732 1.091-3.2.322-3.287-1.713a7.054 7.054 0 0 1 2.981-5.662c1.736-1.093 3.207-.324 3.291 1.711a7.054 7.054 0 0 1-2.986 5.665m29.009-18.275c-1.732 1.091-3.2.322-3.287-1.713a7.052 7.052 0 0 1 2.981-5.662c1.732-1.091 3.207-.324 3.291 1.711a7.063 7.063 0 0 1-2.985 5.665m28.222-17.78c-1.732 1.091-3.2.322-3.287-1.714a7.053 7.053 0 0 1 2.981-5.662c1.732-1.091 3.207-.324 3.291 1.711a7.062 7.062 0 0 1-2.985 5.665m28.223-17.781c-1.732 1.091-3.2.322-3.287-1.713a7.052 7.052 0 0 1 2.981-5.662c1.736-1.094 3.206-.325 3.291 1.711a7.056 7.056 0 0 1-2.985 5.665m27.9-17.578c-1.736 1.094-3.207.324-3.291-1.711a7.053 7.053 0 0 1 2.986-5.665c1.732-1.091 3.2-.322 3.287 1.713a7.052 7.052 0 0 1-2.981 5.662m28.223-17.78c-1.732 1.091-3.207.324-3.291-1.711a7.061 7.061 0 0 1 2.985-5.665c1.732-1.091 3.2-.322 3.287 1.713a7.052 7.052 0 0 1-2.981 5.662m28.223-17.781c-1.732 1.091-3.207.324-3.291-1.711a7.063 7.063 0 0 1 2.985-5.665c1.732-1.091 3.2-.322 3.287 1.714a7.052 7.052 0 0 1-2.981 5.662m29.008-18.275c-1.736 1.094-3.207.324-3.291-1.711a7.053 7.053 0 0 1 2.985-5.665c1.732-1.091 3.2-.322 3.287 1.713a7.053 7.053 0 0 1-2.981 5.662" fill="#172233"/><path data-name="Caminho 32637" d="M287.193 280.892c.077 1.864.788 3.152 1.876 3.729l34.131 18.111c-1.088-.577-1.8-1.865-1.876-3.729a13.039 13.039 0 0 1 5.509-10.453l-34.131-18.11a13.038 13.038 0 0 0-5.509 10.453" fill="#71a2bf"/><path data-name="Caminho 32638" d="m526.329 162.869-199.5 125.685a13.038 13.038 0 0 0-5.509 10.453c.156 3.752 2.88 5.169 6.073 3.157l199.5-125.685a13.039 13.039 0 0 0 5.509-10.453c-.156-3.752-2.88-5.168-6.073-3.157m.493 11.907L327.329 300.462c-2.395 1.509-4.437.452-4.553-2.367a9.767 9.767 0 0 1 4.13-7.838l199.5-125.685c2.4-1.511 4.437-.452 4.554 2.367a9.759 9.759 0 0 1-4.13 7.838" fill="#3180a9"/><path data-name="Caminho 32639" d="M496.919 184.714a4.982 4.982 0 0 0-.629.473 7.1 7.1 0 0 0-1.545 2.005 6.509 6.509 0 0 0-.812 3.187c.085 2.035 1.56 2.8 3.291 1.711a7.052 7.052 0 0 0 2.981-5.662c-.085-2.035-1.555-2.8-3.287-1.714" fill="#3180a9"/><path data-name="Caminho 32640" d="M440.474 220.28a7.054 7.054 0 0 0-2.986 5.665c.085 2.035 1.555 2.8 3.291 1.711a7.054 7.054 0 0 0 2.981-5.662c-.085-2.035-1.555-2.8-3.287-1.713" fill="#3180a9"/><path data-name="Caminho 32641" d="M412.572 237.853a7.054 7.054 0 0 0-2.981 5.662c.084 2.035 1.555 2.8 3.287 1.713a7.054 7.054 0 0 0 2.985-5.665c-.084-2.035-1.555-2.8-3.291-1.711" fill="#3180a9"/><path data-name="Caminho 32642" d="M384.349 255.639a7.051 7.051 0 0 0-2.981 5.662c.084 2.035 1.555 2.8 3.287 1.713a7.061 7.061 0 0 0 2.985-5.665c-.084-2.035-1.559-2.8-3.291-1.711" fill="#3180a9"/><path data-name="Caminho 32643" d="M356.126 273.415a7.053 7.053 0 0 0-2.981 5.662c.084 2.035 1.555 2.8 3.287 1.713a7.061 7.061 0 0 0 2.985-5.665c-.084-2.035-1.559-2.8-3.291-1.711" fill="#3180a9"/><path data-name="Caminho 32644" d="M327.115 291.69a7.054 7.054 0 0 0-2.981 5.662c.085 2.035 1.555 2.8 3.287 1.713a7.053 7.053 0 0 0 2.985-5.665c-.084-2.035-1.555-2.8-3.291-1.711" fill="#3180a9"/><g data-name="Grupo 11489"><g data-name="Grupo 11488"><g data-name="Grupo 11487" clip-path="url(#p)" transform="translate(459.907 162.337)"><g data-name="Grupo 11414" style="mix-blend-mode:normal;isolation:isolate"><g data-name="Grupo 11413"><g data-name="Grupo 11412" clip-path="url(#p)"><g data-name="Grupo 11408"><g data-name="Grupo 11407"><g data-name="Grupo 11406" clip-path="url(#q)"><g data-name="Grupo 11405" opacity=".1"><g data-name="Grupo 11404"><g data-name="Grupo 11403" clip-path="url(#r)" transform="translate(.079 2.002)"><path data-name="Caminho 32645" d="M34.088 7.048 21.562.401a4.354 4.354 0 0 0-3.946.153l-16.83 10.6c-1.075.677-1.042 1.7.068 2.291l12.526 6.647a4.357 4.357 0 0 0 3.953-.157l16.83-10.6a1.209 1.209 0 0 0-.075-2.286"/></g></g></g><path data-name="Caminho 32646" d="M34.089 7.048 21.563.401a4.355 4.355 0 0 0-3.946.152l-16.83 10.6c-1.075.677-1.041 1.7.068 2.291l12.526 6.647a4.357 4.357 0 0 0 3.953-.157l16.83-10.6a1.209 1.209 0 0 0-.075-2.286" fill="#fff"/><path data-name="Caminho 32647" d="M21.024 1.416a2.879 2.879 0 0 0-1.405-.264 2.911 2.911 0 0 0-1.389.374L2.237 11.6a.726.726 0 0 0 .039 1.255c3.087 1.656 11.644 6.224 11.644 6.224a2.871 2.871 0 0 0 1.4.263 2.921 2.921 0 0 0 1.4-.377S29.498 11.049 33.054 8.84a.62.62 0 0 0-.035-1.077c-2.978-1.593-12-6.346-12-6.346" fill="#7f96b5"/><path data-name="Caminho 32648" d="M19.473 2.62a2.683 2.683 0 0 0-1.282.345s-15.688 9.9-15.724 9.937c.037.034 11.747 6.261 11.747 6.261a2.655 2.655 0 0 0 1.295.242 2.7 2.7 0 0 0 1.29-.349s15.683-9.894 15.719-9.933c-.037-.034-11.748-6.261-11.748-6.261a2.652 2.652 0 0 0-1.3-.243" fill="#6d819c"/></g></g></g><g data-name="Grupo 11411"><g data-name="Grupo 11410"><g data-name="Grupo 11409" clip-path="url(#s)" transform="translate(.004 8.15)"><path data-name="Caminho 32649" d="m34.161 1.182-16.83 10.6a4.359 4.359 0 0 1-3.953.157L.852 5.292a1.386 1.386 0 0 1-.854-1.1l.089 1.479a1.385 1.385 0 0 0 .853 1.1l12.526 6.647a4.358 4.358 0 0 0 3.953-.157l16.83-10.6a1.394 1.394 0 0 0 .779-1.183l-.089-1.479a1.4 1.4 0 0 1-.778 1.182" fill="#d7dfea"/></g></g></g></g></g></g><g data-name="Grupo 11417"><g data-name="Grupo 11416"><g data-name="Grupo 11415" clip-path="url(#t)" transform="translate(15.866 3.109)"><path data-name="Caminho 32650" d="M.001 3.186 7.226 7.02l5.058-3.187L5.059-.001Z" fill="#172233"/></g></g></g><g data-name="Grupo 11420"><g data-name="Grupo 11419"><g data-name="Grupo 11418" clip-path="url(#u)" transform="translate(23.093 6.943)"><path data-name="Caminho 32651" d="m.001 3.187.021.495L5.08.495l-.021-.5Z" fill="#172233"/></g></g></g><g data-name="Grupo 11423"><g data-name="Grupo 11422"><g data-name="Grupo 11421" clip-path="url(#v)" transform="translate(15.866 6.295)"><path data-name="Caminho 32652" d="m.001 0 .02.5 7.226 3.834-.021-.495Z" fill="#172233"/></g></g></g><g data-name="Grupo 11426"><g data-name="Grupo 11425"><g data-name="Grupo 11424" clip-path="url(#w)" transform="translate(5.547 11.14)"><path data-name="Caminho 32653" d="m0 1.659 1.426.757L4.057.758 2.631.001Z" fill="#172233"/></g></g></g><g data-name="Grupo 11429"><g data-name="Grupo 11428"><g data-name="Grupo 11427" clip-path="url(#x)" transform="translate(6.971 11.897)"><path data-name="Caminho 32654" d="m.001 1.658.02.5L2.653.5 2.632 0Z" fill="#172233"/></g></g></g><g data-name="Grupo 11432"><g data-name="Grupo 11431"><g data-name="Grupo 11430" clip-path="url(#y)" transform="translate(5.547 12.799)"><path data-name="Caminho 32655" d="m0 0 .021.495 1.426.757-.021-.5Z" fill="#172233"/></g></g></g><g data-name="Grupo 11435"><g data-name="Grupo 11434"><g data-name="Grupo 11433" clip-path="url(#w)" transform="translate(7.626 12.244)"><path data-name="Caminho 32656" d="m.001 1.655 1.426.757L4.058.754 2.632-.003Z" fill="#172233"/></g></g></g><g data-name="Grupo 11438"><g data-name="Grupo 11437"><g data-name="Grupo 11436" clip-path="url(#z)" transform="translate(9.054 13.001)"><path data-name="Caminho 32657" d="m-.001 1.658.021.495L2.652.495 2.632 0Z" fill="#172233"/></g></g></g><g data-name="Grupo 11441"><g data-name="Grupo 11440"><g data-name="Grupo 11439" clip-path="url(#y)" transform="translate(7.626 13.902)"><path data-name="Caminho 32658" d="m.001 0 .021.495 1.426.757-.021-.495Z" fill="#172233"/></g></g></g><g data-name="Grupo 11444"><g data-name="Grupo 11443"><g data-name="Grupo 11442" clip-path="url(#A)" transform="translate(9.705 13.348)"><path data-name="Caminho 32659" d="m.002 1.658 1.427.757L4.06.757 2.634 0Z" fill="#172233"/></g></g></g><g data-name="Grupo 11447"><g data-name="Grupo 11446"><g data-name="Grupo 11445" clip-path="url(#z)" transform="translate(11.133 14.105)"><path data-name="Caminho 32660" d="m0 1.658.02.495L2.652.495 2.631 0Z" fill="#172233"/></g></g></g><g data-name="Grupo 11450"><g data-name="Grupo 11449"><g data-name="Grupo 11448" clip-path="url(#B)" transform="translate(9.705 15.006)"><path data-name="Caminho 32661" d="m.002 0 .02.495 1.427.757-.021-.5Z" fill="#172233"/></g></g></g><g data-name="Grupo 11453"><g data-name="Grupo 11452"><g data-name="Grupo 11451" clip-path="url(#w)" transform="translate(11.787 14.452)"><path data-name="Caminho 32662" d="m-.001 1.658 1.426.757L4.057.757 2.631 0Z" fill="#172233"/></g></g></g><g data-name="Grupo 11456"><g data-name="Grupo 11455"><g data-name="Grupo 11454" clip-path="url(#x)" transform="translate(13.212 15.209)"><path data-name="Caminho 32663" d="m.001 1.658.021.495L2.654.495 2.633 0Z" fill="#172233"/></g></g></g><g data-name="Grupo 11459"><g data-name="Grupo 11458"><g data-name="Grupo 11457" clip-path="url(#y)" transform="translate(11.787 16.11)"><path data-name="Caminho 32664" d="M-.001 0 .02.495l1.426.757-.021-.495Z" fill="#172233"/></g></g></g><g data-name="Grupo 11462"><g data-name="Grupo 11461"><g data-name="Grupo 11460" clip-path="url(#C)" transform="translate(11.705 6.96)"><path data-name="Caminho 32665" d="M-.001 1.959 3.45 3.79l3.109-1.959L3.108 0Z" fill="#172233"/></g></g></g><g data-name="Grupo 11465"><g data-name="Grupo 11464"><g data-name="Grupo 11463" clip-path="url(#D)" transform="translate(15.154 8.791)"><path data-name="Caminho 32666" d="m.001 1.955.02.495L3.131.491 3.11-.004Z" fill="#172233"/></g></g></g><g data-name="Grupo 11468"><g data-name="Grupo 11467"><g data-name="Grupo 11466" clip-path="url(#E)" transform="translate(11.705 8.919)"><path data-name="Caminho 32667" d="M-.001 0 .02.495l3.451 1.832-.021-.5Z" fill="#172233"/></g></g></g><g data-name="Grupo 11471"><g data-name="Grupo 11470"><g data-name="Grupo 11469" clip-path="url(#F)" transform="translate(19.24 10.091)"><path data-name="Caminho 32668" d="m0 .564 1.859.987.895-.564L.895 0Z" fill="#fff"/></g></g></g><g data-name="Grupo 11474"><g data-name="Grupo 11473"><g data-name="Grupo 11472" clip-path="url(#G)" transform="translate(21.1 11.078)"><path data-name="Caminho 32669" d="m0 .563.02.495.9-.564-.021-.5Z" fill="#fff"/></g></g></g><g data-name="Grupo 11477"><g data-name="Grupo 11476"><g data-name="Grupo 11475" clip-path="url(#H)" transform="translate(19.24 10.655)"><path data-name="Caminho 32670" d="m0 0 .02.495 1.86.987-.021-.5Z" fill="#fff"/></g></g></g><g data-name="Grupo 11480"><g data-name="Grupo 11479"><g data-name="Grupo 11478" clip-path="url(#F)" transform="translate(17.557 11.152)"><path data-name="Caminho 32671" d="m0 .564 1.859.987.9-.564L.9 0Z" fill="#fff"/></g></g></g><g data-name="Grupo 11483"><g data-name="Grupo 11482"><g data-name="Grupo 11481" clip-path="url(#G)" transform="translate(19.417 12.139)"><path data-name="Caminho 32672" d="m-.001.564.021.495.895-.564L.895 0Z" fill="#fff"/></g></g></g><g data-name="Grupo 11486"><g data-name="Grupo 11485"><g data-name="Grupo 11484" clip-path="url(#H)" transform="translate(17.557 11.716)"><path data-name="Caminho 32673" d="m0 0 .02.495 1.86.987-.021-.5Z" fill="#fff"/></g></g></g></g></g></g><g data-name="Grupo 11540"><g data-name="Grupo 11539"><g data-name="Grupo 11538" clip-path="url(#I)" transform="translate(333.901 241.114)"><g data-name="Grupo 11501" style="mix-blend-mode:normal;isolation:isolate"><g data-name="Grupo 11500"><g data-name="Grupo 11499" clip-path="url(#I)"><g data-name="Grupo 11495"><g data-name="Grupo 11494"><g data-name="Grupo 11493" clip-path="url(#I)"><g data-name="Grupo 11492" opacity=".1"><g data-name="Grupo 11491"><g data-name="Grupo 11490" clip-path="url(#r)" transform="translate(.09 2.317)"><path data-name="Caminho 32674" d="M34.088 7.047 21.562.4a4.354 4.354 0 0 0-3.946.152l-16.83 10.6c-1.075.677-1.041 1.7.068 2.291L13.38 20.09a4.358 4.358 0 0 0 3.953-.156l16.83-10.6a1.209 1.209 0 0 0-.075-2.286"/></g></g></g><path data-name="Caminho 32675" d="M34.088 7.047 21.562.4a4.354 4.354 0 0 0-3.946.152l-16.83 10.6c-1.075.677-1.041 1.7.068 2.291L13.38 20.09a4.356 4.356 0 0 0 3.953-.157l16.83-10.6a1.209 1.209 0 0 0-.075-2.286" fill="#fff"/><path data-name="Caminho 32676" d="M21.023 1.416a2.874 2.874 0 0 0-1.405-.264 2.908 2.908 0 0 0-1.389.374L2.236 11.6a.726.726 0 0 0 .04 1.255c3.087 1.656 11.644 6.224 11.644 6.224a2.873 2.873 0 0 0 1.4.263 2.92 2.92 0 0 0 1.4-.377S29.499 11.049 33.054 8.84a.62.62 0 0 0-.035-1.077c-2.977-1.593-12-6.346-12-6.346" fill="#7f96b5"/><path data-name="Caminho 32677" d="M19.471 2.62a2.681 2.681 0 0 0-1.282.345s-15.688 9.9-15.724 9.938c.037.034 11.747 6.261 11.747 6.261a2.655 2.655 0 0 0 1.295.242 2.7 2.7 0 0 0 1.29-.348S32.48 9.163 32.516 9.125c-.038-.034-11.748-6.261-11.748-6.261a2.657 2.657 0 0 0-1.3-.243" fill="#6d819c"/></g></g></g><g data-name="Grupo 11498"><g data-name="Grupo 11497"><g data-name="Grupo 11496" clip-path="url(#J)" transform="translate(.001 8.15)"><path data-name="Caminho 32678" d="m34.162 1.183-16.83 10.6a4.36 4.36 0 0 1-3.954.157L.852 5.293a1.383 1.383 0 0 1-.853-1.1l.089 1.479a1.384 1.384 0 0 0 .853 1.1l12.526 6.647a4.358 4.358 0 0 0 3.953-.157l16.83-10.6a1.4 1.4 0 0 0 .779-1.183l-.089-1.48a1.4 1.4 0 0 1-.778 1.183" fill="#d7dfea"/></g></g></g></g></g></g><g data-name="Grupo 11504"><g data-name="Grupo 11503"><g data-name="Grupo 11502" clip-path="url(#K)" transform="translate(15.37 3.85)"><path data-name="Caminho 32679" d="M-.002 3.186 7.223 7.02l5.059-3.186L5.056 0Z" fill="#172233"/></g></g></g><g data-name="Grupo 11507"><g data-name="Grupo 11506"><g data-name="Grupo 11505" clip-path="url(#u)" transform="translate(22.596 7.684)"><path data-name="Caminho 32680" d="m0 3.187.021.495L5.079.495l-.021-.5Z" fill="#172233"/></g></g></g><g data-name="Grupo 11510"><g data-name="Grupo 11509"><g data-name="Grupo 11508" clip-path="url(#L)" transform="translate(15.37 7.037)"><path data-name="Caminho 32681" d="m-.002 0 .02.495 7.226 3.834-.021-.5Z" fill="#172233"/></g></g></g><g data-name="Grupo 11513"><g data-name="Grupo 11512"><g data-name="Grupo 11511" clip-path="url(#M)" transform="translate(11.207 7.701)"><path data-name="Caminho 32682" d="m0 1.96 3.451 1.831L6.56 1.832 3.109.001Z" fill="#172233"/></g></g></g><g data-name="Grupo 11516"><g data-name="Grupo 11515"><g data-name="Grupo 11514" clip-path="url(#N)" transform="translate(14.658 9.532)"><path data-name="Caminho 32683" d="m0 1.959.02.495L3.13.495 3.109 0Z" fill="#172233"/></g></g></g><g data-name="Grupo 11519"><g data-name="Grupo 11518"><g data-name="Grupo 11517" clip-path="url(#O)" transform="translate(11.207 9.66)"><path data-name="Caminho 32684" d="m0 0 .021.495 3.451 1.831-.021-.495Z" fill="#172233"/></g></g></g><g data-name="Grupo 11522"><g data-name="Grupo 11521"><g data-name="Grupo 11520" clip-path="url(#P)" transform="translate(18.742 10.832)"><path data-name="Caminho 32685" d="m0 .564 1.86.987.895-.564L.896 0Z" fill="#fff"/></g></g></g><g data-name="Grupo 11525"><g data-name="Grupo 11524"><g data-name="Grupo 11523" clip-path="url(#Q)" transform="translate(20.602 11.819)"><path data-name="Caminho 32686" d="m0 .564.02.495.9-.564L.899 0Z" fill="#fff"/></g></g></g><g data-name="Grupo 11528"><g data-name="Grupo 11527"><g data-name="Grupo 11526" clip-path="url(#R)" transform="translate(18.742 11.396)"><path data-name="Caminho 32687" d="m0 0 .021.495 1.86.987-.021-.5Z" fill="#fff"/></g></g></g><g data-name="Grupo 11531"><g data-name="Grupo 11530"><g data-name="Grupo 11529" clip-path="url(#P)" transform="translate(17.059 11.893)"><path data-name="Caminho 32688" d="m.003.564 1.86.987.894-.564L.898 0Z" fill="#fff"/></g></g></g><g data-name="Grupo 11534"><g data-name="Grupo 11533"><g data-name="Grupo 11532" clip-path="url(#Q)" transform="translate(18.918 12.88)"><path data-name="Caminho 32689" d="m0 .563.021.495.9-.564L.9-.001Z" fill="#fff"/></g></g></g><g data-name="Grupo 11537"><g data-name="Grupo 11536"><g data-name="Grupo 11535" clip-path="url(#R)" transform="translate(17.059 12.457)"><path data-name="Caminho 32690" d="m.003 0 .021.495 1.86.987-.021-.5Z" fill="#fff"/></g></g></g></g></g></g><g data-name="Grupo 11543" opacity=".89"><g data-name="Grupo 11542"><g data-name="Grupo 11541" clip-path="url(#S)" transform="translate(324.104 96.049)"><path data-name="Caminho 32691" d="m30.555 16.857 17.719 6.461 27.165-17.23L57.734-.001Z" fill="#4b83ad"/><path data-name="Caminho 32692" d="m30.405 16.717 5.375 83.71 16.292 17.821-3.8-94.93Z" fill="#003854"/><path data-name="Caminho 32693" d="m48.275 23.317 3.813 95.357 27.164-17.23-3.813-95.357Z" fill="#003854"/><path data-name="Caminho 32694" d="m51.571 35.217 21.653-13.734-.212-5.487L51.359 29.73Z" fill="#4b83ad"/><path data-name="Caminho 32695" d="m51.926 44.4 21.653-13.739-.212-5.487-21.658 13.739Z" fill="#4b83ad"/><path data-name="Caminho 32696" d="M52.277 53.582 73.93 39.848l-.212-5.487-21.653 13.734Z" fill="#4b83ad"/><path data-name="Caminho 32697" d="m52.634 62.768 21.653-13.734-.212-5.487-21.653 13.734Z" fill="#4b83ad"/><path data-name="Caminho 32698" d="m52.989 71.947 21.653-13.734-.212-5.486-21.653 13.734Z" fill="#4b83ad"/><path data-name="Caminho 32699" d="m53.344 81.13 21.653-13.734-.212-5.487-21.653 13.734Z" fill="#4b83ad"/><path data-name="Caminho 32700" d="m53.699 90.313 21.653-13.734-.212-5.487L53.487 84.83Z" fill="#4b83ad"/><path data-name="Caminho 32701" d="m54.036 99.057 21.653-13.734-.212-5.487-21.653 13.731Z" fill="#4b83ad"/><path data-name="Caminho 32702" d="m54.391 108.24 21.653-13.734-.212-5.487-21.653 13.734Z" fill="#4b83ad"/><path data-name="Caminho 32703" d="M71.007 36.461a3.868 3.868 0 0 0-1.636 3.105c.046 1.114.854 1.533 1.8.935a3.867 3.867 0 0 0 1.636-3.1c-.046-1.117-.854-1.536-1.8-.938" fill="#f8ce36"/><path data-name="Caminho 32704" d="M70.321 18.66a3.869 3.869 0 0 0-1.637 3.1c.047 1.114.854 1.534 1.8.935a3.866 3.866 0 0 0 1.637-3.1c-.046-1.117-.854-1.536-1.8-.938" fill="#ea5a44"/><path data-name="Caminho 32705" d="M70.668 27.646a3.867 3.867 0 0 0-1.636 3.105c.046 1.114.854 1.533 1.8.935a3.866 3.866 0 0 0 1.636-3.1c-.046-1.117-.854-1.536-1.8-.938" fill="#ea5a44"/><path data-name="Caminho 32706" d="m.151 37.52 17.719 6.461 27.165-17.23-17.705-6.089Z" fill="#4b83ad"/><path data-name="Caminho 32707" d="m0 37.381 5.375 83.71 16.288 17.821-3.8-94.93Z" fill="#003854"/><path data-name="Caminho 32708" d="m17.87 43.982 3.813 95.357 27.164-17.23-3.813-95.357Z" fill="#003854"/><path data-name="Caminho 32709" d="m21.163 55.881 21.653-13.734-.212-5.487-21.653 13.734Z" fill="#4b83ad"/><path data-name="Caminho 32710" d="M21.52 65.064 43.173 51.33l-.212-5.487-21.653 13.734Z" fill="#4b83ad"/><path data-name="Caminho 32711" d="m21.875 74.246 21.653-13.734-.212-5.482-21.653 13.734Z" fill="#4b83ad"/><path data-name="Caminho 32712" d="m22.23 83.429 21.653-13.734-.212-5.487-21.653 13.734Z" fill="#4b83ad"/><path data-name="Caminho 32713" d="m22.585 92.611 21.653-13.734-.212-5.487-21.653 13.734Z" fill="#4b83ad"/><path data-name="Caminho 32714" d="m22.939 101.792 21.653-13.734-.212-5.487-21.653 13.737Z" fill="#4b83ad"/><path data-name="Caminho 32715" d="m23.294 110.978 21.653-13.732-.212-5.487-21.653 13.734Z" fill="#4b83ad"/><path data-name="Caminho 32716" d="m23.632 119.721 21.653-13.738-.212-5.487L23.42 114.23Z" fill="#4b83ad"/><path data-name="Caminho 32717" d="m23.985 128.903 21.658-13.734-.212-5.487-21.658 13.735Z" fill="#4b83ad"/><path data-name="Caminho 32718" d="M40.602 57.126a3.868 3.868 0 0 0-1.636 3.105c.046 1.114.854 1.533 1.8.935a3.866 3.866 0 0 0 1.637-3.1c-.046-1.117-.854-1.536-1.8-.938" fill="#f8ce36"/><path data-name="Caminho 32719" d="M39.917 39.324a3.868 3.868 0 0 0-1.636 3.105c.046 1.114.854 1.534 1.8.935a3.867 3.867 0 0 0 1.636-3.1c-.046-1.117-.854-1.536-1.8-.938" fill="#ea5a44"/><path data-name="Caminho 32720" d="M40.264 48.315a3.867 3.867 0 0 0-1.636 3.1c.046 1.114.854 1.534 1.8.935a3.866 3.866 0 0 0 1.637-3.1c-.046-1.117-.854-1.536-1.8-.938" fill="#ea5a44"/></g></g></g><path data-name="Caminho 32721" d="m446.229 200.461-12.526-6.647a4.354 4.354 0 0 0-3.946.153l-16.83 10.6c-1.075.677-1.042 1.7.068 2.291l12.526 6.647a4.357 4.357 0 0 0 3.953-.157l16.83-10.6a1.209 1.209 0 0 0-.075-2.286" fill="#fff"/><path data-name="Caminho 32722" d="M433.164 194.829a3.225 3.225 0 0 0-2.795.11l-15.993 10.073a.726.726 0 0 0 .039 1.255c3.087 1.656 11.644 6.224 11.644 6.224a2.873 2.873 0 0 0 1.4.263 2.922 2.922 0 0 0 1.4-.377s12.778-7.916 16.334-10.125a.621.621 0 0 0-.035-1.077c-2.978-1.593-12-6.346-12-6.346" fill="#7f96b5"/><path data-name="Caminho 32723" d="M431.612 196.033a2.683 2.683 0 0 0-1.282.345s-15.687 9.9-15.724 9.938c.037.034 11.747 6.261 11.747 6.261a2.651 2.651 0 0 0 1.295.242 2.7 2.7 0 0 0 1.29-.348s15.683-9.894 15.719-9.933c-.038-.034-11.748-6.261-11.748-6.261a2.658 2.658 0 0 0-1.3-.243" fill="#6d819c"/><path data-name="Caminho 32724" d="m446.303 202.746-16.83 10.6a4.357 4.357 0 0 1-3.954.157l-12.526-6.646a1.384 1.384 0 0 1-.853-1.1l.089 1.479a1.386 1.386 0 0 0 .853 1.1l12.526 6.647a4.357 4.357 0 0 0 3.953-.157l16.83-10.6a1.4 1.4 0 0 0 .779-1.183l-.089-1.479a1.4 1.4 0 0 1-.778 1.182" fill="#d7dfea"/><path data-name="Caminho 32725" d="M465.652 155.967c.05.092 4.871 9.18.792 12.892-4.312 3.923-14.271 1.908-14.37 1.887l-.483 2.311a32.714 32.714 0 0 0 7.251.568c3.21-.124 6.794-.836 9.193-3.02 5.44-4.951-.067-15.32-.3-15.76Z" fill="#23344f"/><path data-name="Caminho 32726" d="m457.357 147.069-20.078 12.651a8.809 8.809 0 0 0-3.731 7.08 2.812 2.812 0 0 0 1.269 2.53l2.934 1.556a2.811 2.811 0 0 1-1.269-2.529 8.809 8.809 0 0 1 3.731-7.08l20.076-12.648a2.832 2.832 0 0 1 2.844-.391l-2.933-1.557a2.834 2.834 0 0 0-2.845.391" fill="#d7dfea"/><path data-name="Caminho 32727" d="m460.289 148.625-20.076 12.648a8.81 8.81 0 0 0-3.731 7.08c.106 2.548 1.944 3.5 4.113 2.138l20.076-12.648a8.811 8.811 0 0 0 3.731-7.08c-.106-2.548-1.945-3.5-4.113-2.138" fill="#a0b7d5"/><path data-name="Caminho 32728" d="M463.32 122.605a6.249 6.249 0 0 1-5.663.219 2.005 2.005 0 0 1-1.245-1.606l1.054 38.8a2 2 0 0 0 1.245 1.606 6.248 6.248 0 0 0 5.663-.219 1.989 1.989 0 0 0 1.1-1.673l-1.054-38.8a1.99 1.99 0 0 1-1.1 1.674" fill="#23344f"/><path data-name="Caminho 32729" d="M463.175 119.325a6.247 6.247 0 0 0-5.663.219c-1.523.965-1.458 2.434.145 3.279a6.248 6.248 0 0 0 5.663-.219c1.523-.965 1.458-2.434-.145-3.279" fill="#23344f"/><path data-name="Caminho 32730" d="M465.317 118.054a10.674 10.674 0 0 1-9.675.374 3.425 3.425 0 0 1-2.128-2.744l.049 20.918a3.425 3.425 0 0 0 2.128 2.744 10.674 10.674 0 0 0 9.675-.374 3.4 3.4 0 0 0 1.879-2.859l-.049-20.918a3.4 3.4 0 0 1-1.88 2.859" fill="#7f96b5"/><path data-name="Caminho 32731" d="M465.069 112.451a10.675 10.675 0 0 0-9.675.374c-2.6 1.65-2.491 4.16.248 5.6a10.675 10.675 0 0 0 9.675-.374c2.6-1.65 2.491-4.16-.248-5.6" fill="#7f96b5"/><path data-name="Caminho 32732" d="M443.05 178.33a5.183 5.183 0 0 1-4.568-1.132 1.666 1.666 0 0 1-.626-1.569l-2.516 10.053a1.666 1.666 0 0 0 .625 1.569 5.184 5.184 0 0 0 4.569 1.132 1.652 1.652 0 0 0 1.264-1.081l2.517-10.053a1.653 1.653 0 0 1-1.264 1.082" fill="#172233"/><path data-name="Caminho 32733" d="M439.122 174.548c-1.441.42-1.727 1.6-.641 2.65a5.184 5.184 0 0 0 4.569 1.132c1.437-.419 1.724-1.606.641-2.65a5.185 5.185 0 0 0-4.568-1.132" fill="#172233"/><path data-name="Caminho 32734" d="M439.637 186.088a2.027 2.027 0 0 1-1.787-.443.653.653 0 0 1-.245-.614l-.984 3.932a.651.651 0 0 0 .245.614 2.028 2.028 0 0 0 1.787.443.645.645 0 0 0 .494-.423l.984-3.932a.647.647 0 0 1-.494.423" fill="#172233"/><path data-name="Caminho 32735" d="M438.101 184.609c-.564.164-.676.627-.251 1.036a2.027 2.027 0 0 0 1.787.443.564.564 0 0 0 .251-1.036 2.028 2.028 0 0 0-1.787-.443" fill="#172233"/><path data-name="Caminho 32736" d="M437.468 189.473a9.7 9.7 0 0 1 .168-1.929l-.972 5.8c-.014.085.38.185.407.1l1.847-5.555a9.582 9.582 0 0 1-.74 1.752c-.389.653-.671.581-.71-.176" fill="#172233"/><path data-name="Caminho 32737" d="M438.004 186.865a1.549 1.549 0 0 0-.359 1.463.511.511 0 0 0 .914.226 1.552 1.552 0 0 0 .359-1.462.512.512 0 0 0-.914-.227" fill="#172233"/><path data-name="Caminho 32738" d="M448.335 164.311a9.023 9.023 0 0 1-7.95-1.97 2.9 2.9 0 0 1-1.088-2.731l-4.38 17.493a2.9 2.9 0 0 0 1.088 2.73 9.021 9.021 0 0 0 7.95 1.97 2.874 2.874 0 0 0 2.2-1.882l4.38-17.493a2.874 2.874 0 0 1-2.2 1.882" fill="#d7dfea"/><path data-name="Caminho 32739" d="M441.499 157.73c-2.508.731-3.006 2.791-1.115 4.612a9.021 9.021 0 0 0 7.95 1.97c2.5-.729 3-2.8 1.115-4.612a9.022 9.022 0 0 0-7.95-1.97" fill="#e7ecf2"/><path data-name="Caminho 32740" d="m464.315 151.334-20.076 12.648a8.811 8.811 0 0 0-3.731 7.08 2.812 2.812 0 0 0 1.269 2.529l2.934 1.557a2.811 2.811 0 0 1-1.268-2.529 8.81 8.81 0 0 1 3.731-7.08l20.076-12.648a2.833 2.833 0 0 1 2.844-.391l-2.934-1.557a2.834 2.834 0 0 0-2.845.391" fill="#d7dfea"/><path data-name="Caminho 32741" d="m467.246 152.886-20.076 12.648a8.811 8.811 0 0 0-3.731 7.08c.106 2.548 1.945 3.5 4.114 2.138l20.076-12.648a8.81 8.81 0 0 0 3.731-7.08c-.106-2.549-1.945-3.5-4.113-2.138" fill="#a0b7d5"/><path data-name="Caminho 32742" d="M447.886 167.006a5.117 5.117 0 0 0-2.163 4.109c.061 1.477 1.128 2.035 2.385 1.243a5.12 5.12 0 0 0 2.166-4.111c-.061-1.477-1.128-2.035-2.388-1.241" fill="#8ba6c9"/><path data-name="Caminho 32743" d="M466.693 155.411a5.118 5.118 0 0 0-2.164 4.109c.061 1.477 1.129 2.035 2.385 1.243a5.12 5.12 0 0 0 2.167-4.111c-.062-1.477-1.129-2.035-2.388-1.241" fill="#8ba6c9"/><path data-name="Caminho 32744" d="M374.074 211.835c.05.092 4.871 9.18.792 12.892-4.312 3.923-14.271 1.908-14.37 1.887l-.483 2.311a32.712 32.712 0 0 0 7.251.568c3.211-.124 6.794-.836 9.193-3.019 5.439-4.952-.067-15.32-.3-15.761Z" fill="#23344f"/><path data-name="Caminho 32745" d="m365.778 202.936-20.076 12.649a8.809 8.809 0 0 0-3.731 7.08 2.811 2.811 0 0 0 1.269 2.529l2.934 1.556a2.811 2.811 0 0 1-1.269-2.529 8.808 8.808 0 0 1 3.731-7.08l20.076-12.648a2.832 2.832 0 0 1 2.844-.391l-2.933-1.557a2.834 2.834 0 0 0-2.844.391" fill="#d7dfea"/><path data-name="Caminho 32746" d="m368.711 204.492-20.076 12.649a8.809 8.809 0 0 0-3.731 7.08c.106 2.548 1.944 3.5 4.113 2.138l20.076-12.648a8.81 8.81 0 0 0 3.731-7.08c-.106-2.548-1.945-3.5-4.113-2.138" fill="#a0b7d5"/><path data-name="Caminho 32747" d="M371.742 178.472a6.249 6.249 0 0 1-5.663.219 2 2 0 0 1-1.245-1.606l1.054 38.8a2 2 0 0 0 1.245 1.606 6.249 6.249 0 0 0 5.663-.219 1.991 1.991 0 0 0 1.1-1.674l-1.054-38.8a1.991 1.991 0 0 1-1.1 1.674" fill="#23344f"/><path data-name="Caminho 32748" d="M371.598 175.192a6.248 6.248 0 0 0-5.663.219c-1.523.965-1.458 2.435.145 3.279a6.247 6.247 0 0 0 5.663-.219c1.523-.965 1.458-2.434-.145-3.279" fill="#23344f"/><path data-name="Caminho 32749" d="M373.739 173.921a10.675 10.675 0 0 1-9.675.374 3.426 3.426 0 0 1-2.128-2.744l.049 20.918a3.426 3.426 0 0 0 2.128 2.744 10.675 10.675 0 0 0 9.675-.374 3.4 3.4 0 0 0 1.88-2.859l-.049-20.918a3.4 3.4 0 0 1-1.88 2.859" fill="#7f96b5"/><path data-name="Caminho 32750" d="M373.492 168.319a10.672 10.672 0 0 0-9.675.374c-2.6 1.649-2.491 4.16.248 5.6a10.675 10.675 0 0 0 9.675-.373c2.6-1.65 2.49-4.16-.248-5.6" fill="#7f96b5"/><path data-name="Caminho 32751" d="M356.776 230.794a5.185 5.185 0 0 1-4.7.182 1.667 1.667 0 0 1-1.04-1.33l.375 10.356a1.667 1.667 0 0 0 1.036 1.334 5.185 5.185 0 0 0 4.7-.182 1.651 1.651 0 0 0 .913-1.39l-.375-10.356a1.652 1.652 0 0 1-.913 1.39" fill="#172233"/><path data-name="Caminho 32752" d="M356.656 228.071a5.184 5.184 0 0 0-4.7.182c-1.268.8-1.214 2.021.12 2.724a5.184 5.184 0 0 0 4.7-.182c1.265-.8 1.21-2.022-.121-2.724" fill="#172233"/><path data-name="Caminho 32753" d="M355.653 239.195a2.028 2.028 0 0 1-1.839.071.651.651 0 0 1-.405-.522l.146 4.051a.653.653 0 0 0 .405.522 2.028 2.028 0 0 0 1.84-.071.646.646 0 0 0 .357-.544l-.147-4.05a.647.647 0 0 1-.357.544" fill="#172233"/><path data-name="Caminho 32754" d="M355.604 238.129a2.029 2.029 0 0 0-1.84.071.563.563 0 0 0 .047 1.065 2.027 2.027 0 0 0 1.839-.071.564.564 0 0 0-.047-1.065" fill="#172233"/><path data-name="Caminho 32755" d="M354.51 243.049a9.672 9.672 0 0 1-.375-1.9l.679 5.845c.01.085.417.072.42-.013l.231-5.849a9.554 9.554 0 0 1-.224 1.889c-.192.735-.483.745-.731.028" fill="#172233"/><path data-name="Caminho 32756" d="M354.3 240.394a1.548 1.548 0 0 0 .061 1.5.511.511 0 0 0 .941-.037 1.552 1.552 0 0 0-.061-1.5.512.512 0 0 0-.941.036" fill="#172233"/><path data-name="Caminho 32757" d="M357.959 215.859a9.022 9.022 0 0 1-8.185.316 2.9 2.9 0 0 1-1.8-2.321l.653 18.021a2.9 2.9 0 0 0 1.8 2.321 9.023 9.023 0 0 0 8.185-.316 2.873 2.873 0 0 0 1.589-2.419l-.652-18.021a2.876 2.876 0 0 1-1.59 2.419" fill="#d7dfea"/><path data-name="Caminho 32758" d="M357.749 211.119a9.022 9.022 0 0 0-8.185.316c-2.206 1.4-2.113 3.516.21 4.74a9.023 9.023 0 0 0 8.185-.316c2.2-1.4 2.106-3.52-.21-4.74" fill="#e7ecf2"/><path data-name="Caminho 32759" d="m372.737 207.197-20.076 12.648a8.809 8.809 0 0 0-3.731 7.08 2.812 2.812 0 0 0 1.269 2.529l2.934 1.556a2.812 2.812 0 0 1-1.269-2.529 8.81 8.81 0 0 1 3.731-7.08l20.076-12.648a2.833 2.833 0 0 1 2.844-.391l-2.934-1.557a2.834 2.834 0 0 0-2.845.391" fill="#d7dfea"/><path data-name="Caminho 32760" d="m375.671 208.753-20.076 12.648a8.809 8.809 0 0 0-3.731 7.08c.106 2.548 1.945 3.5 4.113 2.138l20.076-12.648a8.811 8.811 0 0 0 3.731-7.08c-.106-2.548-1.945-3.5-4.113-2.138" fill="#a0b7d5"/><path data-name="Caminho 32761" d="M356.309 222.872a5.117 5.117 0 0 0-2.163 4.109c.061 1.477 1.128 2.035 2.385 1.243a5.12 5.12 0 0 0 2.164-4.108c-.061-1.477-1.128-2.035-2.389-1.242" fill="#8ba6c9"/><path data-name="Caminho 32762" d="M375.12 211.274a5.119 5.119 0 0 0-2.163 4.109c.061 1.477 1.129 2.035 2.385 1.244a5.119 5.119 0 0 0 2.166-4.111c-.061-1.477-1.128-2.036-2.389-1.242" fill="#8ba6c9"/><g data-name="Grupo 11558"><g data-name="Grupo 11557"><g data-name="Grupo 11556" clip-path="url(#T)" transform="translate(375.071 215.937)"><g data-name="Grupo 11555" style="mix-blend-mode:normal;isolation:isolate"><g data-name="Grupo 11554"><g data-name="Grupo 11553" clip-path="url(#T)"><g data-name="Grupo 11549"><g data-name="Grupo 11548"><g data-name="Grupo 11547" clip-path="url(#U)"><g data-name="Grupo 11546" opacity=".1"><g data-name="Grupo 11545"><g data-name="Grupo 11544" clip-path="url(#V)" transform="translate(.086 2.231)"><path data-name="Caminho 32763" d="M34.086 7.047 21.56.401a4.354 4.354 0 0 0-3.946.153l-16.83 10.6c-1.075.677-1.041 1.7.068 2.291l12.526 6.647a4.357 4.357 0 0 0 3.953-.157l16.83-10.6a1.209 1.209 0 0 0-.075-2.286"/></g></g></g><path data-name="Caminho 32764" d="M34.087 7.048 21.56.401a4.354 4.354 0 0 0-3.946.152l-16.83 10.6c-1.075.677-1.041 1.7.068 2.291l12.526 6.647a4.357 4.357 0 0 0 3.953-.157l16.83-10.6a1.209 1.209 0 0 0-.075-2.286" fill="#fff"/><path data-name="Caminho 32765" d="M21.021 1.416a2.874 2.874 0 0 0-1.4-.264 2.91 2.91 0 0 0-1.389.374L2.239 11.6a.726.726 0 0 0 .039 1.255c3.087 1.656 11.644 6.224 11.644 6.224a2.876 2.876 0 0 0 1.4.263 2.921 2.921 0 0 0 1.4-.377S29.501 11.049 33.057 8.84a.62.62 0 0 0-.035-1.077c-2.978-1.593-12-6.346-12-6.346" fill="#7f96b5"/><path data-name="Caminho 32766" d="M19.47 2.621a2.683 2.683 0 0 0-1.282.345s-15.687 9.9-15.724 9.937c.037.034 11.747 6.261 11.747 6.261a2.655 2.655 0 0 0 1.295.242 2.7 2.7 0 0 0 1.29-.348s15.683-9.895 15.719-9.933c-.038-.034-11.749-6.261-11.749-6.261a2.655 2.655 0 0 0-1.3-.243" fill="#6d819c"/></g></g></g><g data-name="Grupo 11552"><g data-name="Grupo 11551"><g data-name="Grupo 11550" clip-path="url(#W)" transform="translate(0 8.151)"><path data-name="Caminho 32767" d="m34.162 1.183-16.83 10.6a4.36 4.36 0 0 1-3.953.157L.853 5.293A1.384 1.384 0 0 1 0 4.193l.089 1.479a1.384 1.384 0 0 0 .853 1.1l12.53 6.651a4.358 4.358 0 0 0 3.953-.157l16.83-10.6a1.4 1.4 0 0 0 .778-1.183l-.089-1.48a1.4 1.4 0 0 1-.778 1.183" fill="#d7dfea"/></g></g></g></g></g></g></g></g></g><path data-name="Caminho 32768" d="m390.938 222.254 7.225 3.834 5.058-3.187-7.225-3.834Z" fill="#172233"/><path data-name="Caminho 32769" d="m398.163 226.089.021.495 5.059-3.187-.021-.5Z" fill="#172233"/><path data-name="Caminho 32770" d="m390.938 222.255.021.5 7.225 3.834-.021-.5Z" fill="#172233"/><path data-name="Caminho 32771" d="m380.616 228.757 1.426.757 2.631-1.658-1.426-.757Z" fill="#172233"/><path data-name="Caminho 32772" d="m382.042 229.514.021.5 2.632-1.658-.021-.5Z" fill="#172233"/><path data-name="Caminho 32773" d="m380.616 228.757.021.495 1.427.757-.021-.5Z" fill="#172233"/><path data-name="Caminho 32774" d="m382.696 229.861 1.426.757 2.632-1.658-1.426-.757Z" fill="#172233"/><path data-name="Caminho 32775" d="m384.122 230.618.021.495 2.632-1.658-.021-.495Z" fill="#172233"/><path data-name="Caminho 32776" d="m382.696 229.861.021.495 1.426.757-.021-.495Z" fill="#172233"/><path data-name="Caminho 32777" d="m384.776 230.965 1.426.757 2.631-1.658-1.426-.757Z" fill="#172233"/><path data-name="Caminho 32778" d="m386.203 231.721.021.495 2.631-1.658-.021-.495Z" fill="#172233"/><path data-name="Caminho 32779" d="m384.776 230.969.02.5 1.426.757-.021-.5Z" fill="#172233"/><path data-name="Caminho 32780" d="m386.856 232.068 1.426.756 2.631-1.658-1.426-.757Z" fill="#172233"/><path data-name="Caminho 32781" d="m388.283 232.825.021.495 2.631-1.658-.021-.495Z" fill="#172233"/><path data-name="Caminho 32782" d="m386.856 232.068.021.495 1.426.757-.021-.5Z" fill="#172233"/><path data-name="Caminho 32783" d="m386.774 224.877 3.451 1.831 3.109-1.959-3.451-1.831Z" fill="#172233"/><path data-name="Caminho 32784" d="m390.225 226.709.021.495 3.11-1.959-.021-.5Z" fill="#172233"/><path data-name="Caminho 32785" d="m386.774 224.877.021.495 3.451 1.832-.021-.5Z" fill="#172233"/><path data-name="Caminho 32786" d="m394.309 226.617 1.86.987.895-.564-1.86-.987Z" fill="#fff"/><path data-name="Caminho 32787" d="m396.169 227.601.02.495.9-.564-.021-.5Z" fill="#fff"/><path data-name="Caminho 32788" d="m394.309 226.613.021.495 1.86.987-.02-.5Z" fill="#fff"/><path data-name="Caminho 32789" d="m392.626 227.674 1.86.987.895-.564-1.859-.987Z" fill="#fff"/><path data-name="Caminho 32790" d="m394.483 228.661.021.495.895-.564-.021-.495Z" fill="#fff"/><path data-name="Caminho 32791" d="m392.626 227.674.021.495 1.86.987-.021-.5Z" fill="#fff"/></g></g><g data-name="Grupo 11562"><g data-name="Grupo 11561" clip-path="url(#X)" transform="translate(372.352 54.386)"><path data-name="Caminho 32792" d="m91.158 171.808 54.941 36.209 12.243-20.03-51.8-25.831Z" fill="#ab3e40"/><path data-name="Caminho 32793" d="m18.639 36.527 13.005-8.245-.061-1.72-13.005 8.245Z" fill="#3180a9"/><path data-name="Caminho 32794" d="m39.193 152.34 13.005-8.245-3.828-107-13.006 8.245Z" fill="#ab3e40"/><path data-name="Caminho 32795" d="m18.578 34.802 16.725 8.814 13.005-8.245-16.725-8.814Z" fill="#3180a9"/><path data-name="Caminho 32796" d="m18.639 36.523 3.828 107 16.725 8.814-3.828-107-.061-1.72-16.725-8.814Z" fill="#e86145"/><path data-name="Caminho 32797" d="m35.365 45.337 13.005-8.245-.061-1.72-13.005 8.245Z" fill="#3180a9"/><path data-name="Caminho 32798" d="m125.305 92.734 13.005-8.245-.061-1.72-13.005 8.245Z" fill="#3180a9"/><path data-name="Caminho 32799" d="m145.858 208.551 13.005-8.245-3.828-107-13.005 8.245Z" fill="#ab3e40"/><path data-name="Caminho 32800" d="m125.243 91.014 16.725 8.814 13.006-8.245-16.725-8.814Z" fill="#3180a9"/><path data-name="Caminho 32801" d="m125.305 92.734 3.828 107 16.756 9.08-3.858-107.269-.062-1.72-16.725-8.814Z" fill="#e86145"/><path data-name="Caminho 32802" d="m142.03 101.548 13.005-8.245-.062-1.72-13.005 8.245Z" fill="#3180a9"/><path data-name="Caminho 32803" d="m9.581 33.409 7.515 3.961 123.394 65.025 7.515 3.961-.459-12.834L9.122 20.577Z" fill="#e86145"/><path data-name="Caminho 32804" d="m9.122 20.575 138.421 72.947 20.16-13.1L29.281 7.475Z" fill="#e47c57"/><path data-name="Caminho 32805" d="m148.003 106.353 20.159-13.1-.459-12.835-20.159 13.1Z" fill="#ab3e40"/><path data-name="Caminho 32806" d="m91.158 171.809.324 8.389 54.405 28.619-1.015-9.8Z" fill="#e86145"/></g></g><g data-name="Grupo 11567"><g data-name="Grupo 11566" clip-path="url(#d)" transform="translate(0 -.002)"><g data-name="Grupo 11565" opacity=".89"><g data-name="Grupo 11564"><g data-name="Grupo 11563" clip-path="url(#Y)" transform="translate(432.785 162.019)"><path data-name="Caminho 32808" d="m30.555 16.858 17.719 6.461 27.165-17.23L57.734 0Z" fill="#4b83ad"/><path data-name="Caminho 32809" d="m30.399 16.719 5.375 83.71 16.292 17.821-3.8-94.93Z" fill="#003854"/><path data-name="Caminho 32810" d="m48.274 23.319 3.812 95.357 27.164-17.23-3.812-95.357Z" fill="#003854"/><path data-name="Caminho 32811" d="m51.569 35.218 21.653-13.734-.212-5.487-21.653 13.734Z" fill="#4b83ad"/><path data-name="Caminho 32812" d="m51.924 44.401 21.653-13.734-.212-5.487-21.653 13.734Z" fill="#4b83ad"/><path data-name="Caminho 32813" d="m52.279 53.583 21.653-13.734-.212-5.487-21.653 13.734Z" fill="#4b83ad"/><path data-name="Caminho 32814" d="M52.633 62.764 74.286 49.03l-.212-5.487-21.653 13.734Z" fill="#4b83ad"/><path data-name="Caminho 32815" d="m52.988 71.948 21.653-13.734-.212-5.487-21.654 13.734Z" fill="#4b83ad"/><path data-name="Caminho 32816" d="m53.343 81.132 21.653-13.734-.212-5.487-21.653 13.734Z" fill="#4b83ad"/><path data-name="Caminho 32817" d="M53.697 90.314 75.35 76.58l-.212-5.487-21.653 13.733Z" fill="#4b83ad"/><path data-name="Caminho 32818" d="m54.034 99.058 21.653-13.734-.212-5.487-21.653 13.734Z" fill="#4b83ad"/><path data-name="Caminho 32819" d="m54.389 108.24 21.653-13.734-.212-5.487-21.65 13.734Z" fill="#4b83ad"/><path data-name="Caminho 32820" d="M71.007 36.463a3.868 3.868 0 0 0-1.636 3.105c.046 1.114.854 1.533 1.8.935a3.866 3.866 0 0 0 1.637-3.1c-.046-1.116-.854-1.536-1.8-.938" fill="#f8ce36"/><path data-name="Caminho 32821" d="M70.32 18.661a3.868 3.868 0 0 0-1.636 3.105c.046 1.114.854 1.533 1.8.935a3.866 3.866 0 0 0 1.637-3.1c-.047-1.117-.854-1.536-1.8-.938" fill="#ea5a44"/><path data-name="Caminho 32822" d="M70.666 27.652a3.869 3.869 0 0 0-1.637 3.105c.047 1.114.854 1.533 1.8.935a3.866 3.866 0 0 0 1.636-3.1c-.046-1.117-.854-1.536-1.8-.938" fill="#ea5a44"/><path data-name="Caminho 32823" d="m.153 37.522 17.719 6.461 27.165-17.23-17.705-6.089Z" fill="#4b83ad"/><path data-name="Caminho 32824" d="m-.001 37.383 5.375 83.71 16.292 17.821-3.8-94.93Z" fill="#003854"/><path data-name="Caminho 32825" d="m17.869 43.983 3.812 95.357 27.164-17.23-3.812-95.357Z" fill="#003854"/><path data-name="Caminho 32826" d="m21.165 55.882 21.653-13.734-.212-5.487-21.653 13.734Z" fill="#4b83ad"/><path data-name="Caminho 32827" d="M21.52 65.064 43.173 51.33l-.212-5.487-21.653 13.734Z" fill="#4b83ad"/><path data-name="Caminho 32828" d="m21.874 74.247 21.653-13.734-.212-5.487L21.66 68.761Z" fill="#4b83ad"/><path data-name="Caminho 32829" d="m22.228 83.43 21.653-13.734-.212-5.487-21.653 13.734Z" fill="#4b83ad"/><path data-name="Caminho 32830" d="m22.583 92.613 21.653-13.734-.212-5.487-21.653 13.734Z" fill="#4b83ad"/><path data-name="Caminho 32831" d="m22.938 101.796 21.653-13.734-.212-5.487-21.653 13.734Z" fill="#4b83ad"/><path data-name="Caminho 32832" d="m23.292 110.979 21.654-13.737-.212-5.487-21.653 13.734Z" fill="#4b83ad"/><path data-name="Caminho 32833" d="m23.634 119.721 21.653-13.734-.212-5.487-21.653 13.734Z" fill="#4b83ad"/><path data-name="Caminho 32834" d="m23.985 128.904 21.653-13.734-.212-5.487-21.653 13.734Z" fill="#4b83ad"/><path data-name="Caminho 32835" d="M40.602 57.127a3.867 3.867 0 0 0-1.636 3.105c.046 1.114.854 1.533 1.8.935a3.866 3.866 0 0 0 1.636-3.1c-.046-1.117-.854-1.536-1.8-.938" fill="#f8ce36"/><path data-name="Caminho 32836" d="M39.914 39.325a3.868 3.868 0 0 0-1.636 3.105c.046 1.114.854 1.533 1.8.935a3.866 3.866 0 0 0 1.637-3.1c-.046-1.117-.854-1.536-1.8-.938" fill="#ea5a44"/><path data-name="Caminho 32837" d="M40.262 48.316a3.869 3.869 0 0 0-1.637 3.105c.046 1.114.854 1.533 1.8.935a3.865 3.865 0 0 0 1.636-3.1c-.046-1.117-.854-1.536-1.8-.938" fill="#ea5a44"/></g></g></g></g></g><g data-name="Grupo 11569"><g data-name="Grupo 11568" clip-path="url(#Z)" transform="translate(280.762 109.91)"><path data-name="Caminho 32838" d="m107.781 163.683-14.357 8.956.324 8.39 52.111 27.522 13.005-8.245-.762-11.784Z" fill="#ab3e40"/><path data-name="Caminho 32839" d="m93.423 172.64.324 8.389 52.111 27.522 13.005-8.245-12.457-1.88Z" fill="#e86145"/><path data-name="Caminho 32840" d="m18.639 36.522 13.005-8.245-.062-1.72-13.005 8.245Z" fill="#3180a9"/><path data-name="Caminho 32841" d="m39.193 152.34 13.005-8.245-3.828-107-13.005 8.245Z" fill="#ab3e40"/><path data-name="Caminho 32842" d="m18.578 34.803 16.725 8.814 13.006-8.245-16.725-8.814Z" fill="#3180a9"/><path data-name="Caminho 32843" d="m18.639 36.523 3.828 107 16.725 8.814-3.828-107-.062-1.72-16.725-8.814Z" fill="#e86145"/><path data-name="Caminho 32844" d="m35.364 45.336 13.005-8.245-.061-1.72-13.005 8.245Z" fill="#3180a9"/><path data-name="Caminho 32845" d="m125.305 92.733 13.005-8.245-.061-1.72-13.005 8.245Z" fill="#3180a9"/><path data-name="Caminho 32846" d="m145.858 208.553 13.005-8.245-3.828-107-13.005 8.245Z" fill="#ab3e40"/><path data-name="Caminho 32847" d="m125.243 91.013 16.725 8.814 13.005-8.245-16.725-8.814Z" fill="#3180a9"/><path data-name="Caminho 32848" d="m125.305 92.733 3.828 107 16.725 8.814-3.828-107-.062-1.72-16.725-8.814Z" fill="#e86145"/><path data-name="Caminho 32849" d="m142.03 101.548 13.005-8.245-.062-1.72-13.005 8.245Z" fill="#3180a9"/><path data-name="Caminho 32850" d="m9.581 33.409 7.516 3.961 123.391 65.025 7.516 3.961-.459-12.835L9.12 20.574Z" fill="#e86145"/><path data-name="Caminho 32851" d="m9.121 20.575 138.422 72.947 20.159-13.1L29.282 7.47Z" fill="#e47c57"/><path data-name="Caminho 32852" d="m148.003 106.355 20.159-13.1-.459-12.835-20.159 13.1Z" fill="#ab3e40"/></g></g><g data-name="Grupo 11673"><g data-name="Grupo 11672" clip-path="url(#d)" transform="translate(0 -.002)"><path data-name="Caminho 32854" d="m344.306 279.684 17.75 9.424 29.282-18.564-17.751-9.424Z" fill="#3180a9"/><path data-name="Caminho 32855" d="m363.709 334.043 29.282-18.564-1.653-44.935-29.282 18.564Z" fill="#172233"/><path data-name="Caminho 32856" d="m345.959 324.619 17.747 9.425-1.654-44.935-17.746-9.425Z" fill="#293c5c"/><path data-name="Caminho 32857" d="m346.428 289.166 14.15 7.512-.132-3.428-14.15-7.512Z" fill="#3180a9"/><path data-name="Caminho 32858" d="m346.649 294.904 14.15 7.512-.132-3.428-14.15-7.512Z" fill="#3180a9"/><path data-name="Caminho 32859" d="m346.87 300.641 14.15 7.512-.132-3.428-14.15-7.512Z" fill="#3180a9"/><path data-name="Caminho 32860" d="m347.092 306.377 14.15 7.512-.132-3.428-14.15-7.512Z" fill="#3180a9"/><path data-name="Caminho 32861" d="m347.313 312.116 14.15 7.512-.132-3.428-14.15-7.512Z" fill="#3180a9"/><path data-name="Caminho 32862" d="m347.535 317.852 14.15 7.512-.132-3.428-14.15-7.512Z" fill="#3180a9"/><path data-name="Caminho 32863" d="m365.875 290.856 17.751 9.424 29.282-18.564-17.75-9.423Z" fill="#3180a9"/><path data-name="Caminho 32864" d="m385.279 345.215 29.282-18.564-1.653-44.935-29.282 18.564Z" fill="#293c5c"/><path data-name="Caminho 32865" d="m367.529 335.791 17.75 9.424-1.653-44.935-17.751-9.424Z" fill="#293c5c"/><path data-name="Caminho 32866" d="m367.997 300.338 14.149 7.512-.132-3.428-14.149-7.512Z" fill="#3180a9"/><path data-name="Caminho 32867" d="m368.219 306.076 14.15 7.512-.132-3.428-14.15-7.512Z" fill="#3180a9"/><path data-name="Caminho 32868" d="m368.44 311.812 14.15 7.512-.132-3.428-14.15-7.512Z" fill="#3180a9"/><path data-name="Caminho 32869" d="m368.662 317.55 14.15 7.512-.132-3.428-14.15-7.512Z" fill="#3180a9"/><path data-name="Caminho 32870" d="m368.883 323.287 14.15 7.512-.132-3.428-14.15-7.512Z" fill="#3180a9"/><path data-name="Caminho 32871" d="m369.104 329.024 14.15 7.512-.132-3.428-14.15-7.512Z" fill="#3180a9"/><path data-name="Caminho 32872" d="M348.399 298.355c-.621-.327-1.1-.027-1.079.671a2.416 2.416 0 0 0 1.169 1.854c.621.327 1.1.027 1.079-.669a2.419 2.419 0 0 0-1.169-1.856" fill="#e47c57"/><path data-name="Caminho 32873" d="M347.969 287.233c-.62-.327-1.1-.027-1.078.671a2.416 2.416 0 0 0 1.169 1.853c.621.327 1.1.027 1.079-.669a2.416 2.416 0 0 0-1.169-1.855" fill="#e47c57"/><path data-name="Caminho 32874" d="M348.186 292.85c-.621-.327-1.1-.027-1.079.671a2.417 2.417 0 0 0 1.169 1.854c.621.327 1.1.027 1.079-.669a2.418 2.418 0 0 0-1.169-1.855" fill="#e47c57"/><g data-name="Grupo 11572" opacity=".2" style="mix-blend-mode:multiply;isolation:isolate"><g data-name="Grupo 11571"><g data-name="Grupo 11570" clip-path="url(#aa)" transform="translate(487.403 319.848)"><path data-name="Caminho 32875" d="M23.699.248a10.451 10.451 0 0 0-3.751-.159c-3.421.209-5.642-.23-9 1.08a32.506 32.506 0 0 0-8.924 5.246c-1.08.9-2.194 2.1-2 3.491a2.986 2.986 0 0 0 2.291 2.271 7.981 7.981 0 0 0 3.392-.069 58.308 58.308 0 0 0 17.558-6.089c1.261-.68 2.65-1.648 2.7-3.079a2.991 2.991 0 0 0-2.26-2.692" fill="#6c8cad"/></g></g></g><path data-name="Caminho 32876" d="M495.487 325.118a18.686 18.686 0 0 1-5.622 1.35c-1.858.076-3.865 1.667-2.219 2.981l9.862 1.768s3.046.7 3.936-1.733l-1.091-3.695Z" fill="#162031"/><path data-name="Caminho 32877" d="M510.193 316.396a58.576 58.576 0 0 1-6.694.894c-1.771.072-3.114 2.415-1.445 3.012l8.2 2.26s3.393.81 4.242-1.509l-1.133-4.85Z" fill="#162031"/><path data-name="Caminho 32878" d="M476.723 238.429s-1.121.1-.654 1.754c.533 1.89-.246 1.92-.246 1.92l-2.684-2.573-1.024-2.085s-.918.353-.566 2.145a19.7 19.7 0 0 0 .252 3.931c.086.332.114.671.383.883l4.6 2.494 2.966-.192-1.573-4.245Z" fill="#df9877"/><path data-name="Caminho 32879" d="M508.167 257.639c-2.189 1.507-12.186 5.129-13.835 3.428l-2.5 35.9a6 6 0 0 0 .079 1.681l3.827 25.418c1.39-.039 2.78-.062 4.169-.049a28.574 28.574 0 0 1-.117-3.149c.108-5.535.847-13.208.521-14.845l-.833-8.347 4.692-17.628.28 13.443a6.54 6.54 0 0 0 .536 3.383l3.766 19.734a23.777 23.777 0 0 1 3.624-1.1l.123-15.141-1.072-6.512s1.207-6.094 1.888-12.941c.842-8.461-.919-8.764-1.443-12.135-.43-2.765-3.706-11.143-3.706-11.143" fill="#df9877"/><path data-name="Caminho 32880" d="M508.167 257.639c-2.189 1.507-12.186 5.129-13.835 3.428l-2.5 35.9a6 6 0 0 0 .079 1.681l2.375 27.1c2.187 3.086 5.463 2.27 6.506.714 0-.305-.081-5.386-.075-5.708.107-5.535-.312-23.192-.312-23.192l3.765-17.512.28 13.443c-.01.595 3.323 24.569 3.323 24.569 1.048 2.165 3.4 2.35 5.939.322l-1.212-18.011-.3-6.876s.436-5.73 1.117-12.577c.842-8.461-.984-12.015-1.508-15.387-.431-2.765-3.641-7.891-3.641-7.891" fill="#293c5c"/><g data-name="Grupo 11575" opacity=".2" style="mix-blend-mode:multiply;isolation:isolate"><g data-name="Grupo 11574"><g data-name="Grupo 11573" clip-path="url(#ab)" transform="translate(495.215 269.58)"><path data-name="Caminho 32881" d="M17.128.061a41.122 41.122 0 0 0-3.6 1.1 2.5 2.5 0 0 1-1.315 2.547c-.661.389-1.358.755-2.066 1.117a2.791 2.791 0 0 1-2.014 1.059c-.032 0-.062.014-.095.018a29.89 29.89 0 0 0-2.3 1.313C1.625 11.668.523 25.907.385 29.143c-.4 9.275-.464 18.795-.3 28.122a3.775 3.775 0 0 0 5.495-.383c0-.305-.081-5.387-.075-5.708.108-5.536-.312-23.193-.312-23.193l3.765-17.512.279 13.442c-.01.595 3.323 24.569 3.323 24.569 1.049 2.165 3.4 2.349 5.939.322L17.288 30.79l-.3-6.876s.436-5.73 1.117-12.577A33.1 33.1 0 0 0 17.51 0c-.128.019-.249.043-.378.061" fill="#6c8cad"/></g></g></g><path data-name="Caminho 32882" d="M512.407 232.663c-1.263-2.723-3.629 10.559-3.629 10.559l3.739 9.077-5.887 5.587 2.956 2.344a65.486 65.486 0 0 0 6.7-4.472c2.106-1.682 1.219-4.778 1.219-4.778s-1.276-10.075-5.1-18.318" fill="#3180a9"/><g data-name="Grupo 11578" opacity=".07"><g data-name="Grupo 11577"><g data-name="Grupo 11576" clip-path="url(#ac)" transform="translate(506.629 239.878)"><path data-name="Caminho 32883" d="M8.684 11.756a27.46 27.46 0 0 1-3.7-6.724C4.275 3.387 3.429 1.717 2.77-.001c-.374 1.862-.62 3.344-.62 3.344l3.739 9.077-5.888 5.588 2.956 2.344a65.583 65.583 0 0 0 6.7-4.471 3.652 3.652 0 0 0 1.283-2.14 8.358 8.358 0 0 1-2.258-1.985" fill="#1d1d1b"/></g></g></g><path data-name="Caminho 32884" d="M512.759 236.923c.113-1.646.972-4.59-3.1-6.984-.662-.389-2.088-.369-3.043-.662-4.05-1.241-2.542-.669-6.918.712a11.473 11.473 0 0 1-2.518 1.913c-1.206.782-2.6 1.366-2.89 1.593-3.248 2.563-1.466 5-2.306 6.211-1.947 2.815.792 11.124.792 11.124a70.281 70.281 0 0 1 1.088 9.335c-.08 2.14-.7 11.007-.7 11.007a16.809 16.809 0 0 0 13.288 2.009c7.7-2.008 8.114-4.035 8.114-4.035l-1.9-13.433s.015-17.7.09-18.789" fill="#3180a9"/><g data-name="Grupo 11581" opacity=".07"><g data-name="Grupo 11580"><g data-name="Grupo 11579" clip-path="url(#ad)" transform="translate(491.28 234.861)"><path data-name="Caminho 32885" d="M1.233 2.941a2.811 2.811 0 0 1 .477-1.658C1.71.854 1.687.431 1.699 0c-1.38 2.033-.311 3.848-1 4.844-1.947 2.815.792 11.124.792 11.124a70.282 70.282 0 0 1 1.088 9.336c-.08 2.14-.7 11.007-.7 11.007a16.827 16.827 0 0 0 12.452 2.19C5.859 28.914 1.372 14.68 1.231 2.942" fill="#1d1d1b"/></g></g></g><path data-name="Caminho 32886" d="M497.447 220.911s.974 4.238 1.823 6.739c.113.332.422 2.339.422 2.339 1.317.935 6.328 1.3 6.268-1.03l-.713-8.251Z" fill="#df9877"/><path data-name="Caminho 32887" d="M494.641 221.949c.094 3.589 2.617 5.088 6.02 5 0 0 6.25-2.12 6.158-5.645l.54-6.546-12.953-1.844Z" fill="#df9877"/><path data-name="Caminho 32888" d="M497.254 208.395c-2.769 1.3-7.109 4.25-2.782 7.1 0 0 1.752.385 1.824 3.133s3.914 4.525 6.211 6.022c1.82 1.186 3.911-.151 3.911-.151s5.026-2.559 1.092-12.558c-1.855-4.716-8.308-4.459-10.257-3.546" fill="#81524f"/><path data-name="Caminho 32889" d="m495.913 218.778.078 2.987c1.264.541 2.243-1.189 2.008-2.73-.318-2.091-2.086-.257-2.086-.257" fill="#df9877"/><path data-name="Caminho 32890" d="m479.311 245.95-3.576.011s6.688 11.568 8.292 12.495c4.195 2.424 5.025-.426 5.977-2.154l-3.067-3.452Z" fill="#df9877"/><path data-name="Caminho 32891" d="M492.988 234.41c-2.512 2.327-2.236 6.9-3.858 11.034a30.645 30.645 0 0 1-3.38 6.332l-3.688-3.337a16.776 16.776 0 0 0-2.995 3.079c1.925 3.109 4.126 6.456 4.959 6.936 2.872 1.659 4.166.847 5-.385a50.974 50.974 0 0 0 8.576-15.563c1.374-4.352.254-12.611-4.617-8.1" fill="#3180a9"/><g data-name="Grupo 11584" opacity=".1"><g data-name="Grupo 11583"><g data-name="Grupo 11582" clip-path="url(#ae)" transform="translate(482.176 249.149)"><path data-name="Caminho 32892" d="M0 7.134a9.474 9.474 0 0 0 1.851 2.173c2.871 1.659 4.165.847 5-.384A52.688 52.688 0 0 0 12.64.001c-.611.562-7.2 11.93-12.642 7.134" fill="#1d1d1b"/></g></g></g><path data-name="Caminho 32893" d="M495.751 208.806c-1.539-.055-3.98 3.5-3.98 3.5s-.254.391.095 1.376a11.145 11.145 0 0 0 2.273 3.43s6.056 6.01 8.957 5.867a7.556 7.556 0 0 0 6.439-3.578s1.515-2.029-.967-5.7-11.278-4.835-12.817-4.89" fill="#fec82f"/><path data-name="Caminho 32894" d="M504.892 207.774c-4.219-2.18-7.283.557-8.474 1.844a13.709 13.709 0 0 0-1.958 2.832s-.7 3.335 3.54 6.585c2.7 2.069 5.782 2.841 8.1 2.062a5.184 5.184 0 0 0 3.425-4.129s-.409-7.013-4.628-9.193" fill="#fec82f"/><path data-name="Caminho 32895" d="M499.701 207.337a8.676 8.676 0 0 0-3.283 2.284 11.361 11.361 0 0 0-.875 1.081c5.38-.091 9.13 5.114 10.506 10.41.015 0 .031-.006.046-.011a5.185 5.185 0 0 0 3.424-4.129 17.723 17.723 0 0 0-1.094-4.794c-.355-.373-5.014-4.342-8.725-4.841" fill="#fed561"/><path data-name="Caminho 32896" d="m168.993 73.542 64.6 37.544 37.443-21.771-64.6-37.544Z" fill="#4b83ad"/><path data-name="Caminho 32897" d="m168.993 73.542.176 96.907 64.608 37.546-.176-96.908Z" fill="#172233"/><path data-name="Caminho 32898" d="m233.598 111.086.176 96.908 37.444-21.771-.176-96.907Z" fill="#003854"/><path data-name="Caminho 32899" d="m237.282 197.068 29.847-17.354V98.798l-29.847 17.354Z" fill="#4b83ad"/><path data-name="Caminho 32900" d="m123.471 99.394 64.6 37.544 37.444-21.771-64.604-37.539Z" fill="#4b83ad"/><path data-name="Caminho 32901" d="m123.471 99.395.176 96.908 64.6 37.544-.176-96.908Z" fill="#003854"/><path data-name="Caminho 32902" d="m188.076 136.939.176 96.907 37.444-21.771-.176-96.908Z" fill="#003854"/><path data-name="Caminho 32903" d="M241.997 154.571a5.207 5.207 0 0 0-2.363 4.093c0 1.5 1.069 2.108 2.379 1.352a5.207 5.207 0 0 0 2.363-4.089c0-1.5-1.069-2.112-2.378-1.355" fill="#ea5a44"/><path data-name="Caminho 32904" d="m193.118 222.287 29.848-17.354v-80.916l-29.848 17.354Z" fill="#4b83ad"/><path data-name="Caminho 32905" d="M218.2 164.755a5.207 5.207 0 0 0-2.363 4.093c0 1.5 1.069 2.108 2.379 1.352a5.206 5.206 0 0 0 2.363-4.089c0-1.5-1.069-2.111-2.378-1.355" fill="#ea5a44"/><path data-name="Caminho 32906" d="m76.24 127.035 64.6 37.544 37.446-21.771-64.6-37.543Z" fill="#4b83ad"/><path data-name="Caminho 32907" d="m76.24 127.035.176 96.907 64.6 37.544-.176-96.907Z" fill="#172233"/><path data-name="Caminho 32908" d="m140.845 164.579.175 96.908 37.444-21.771-.18-96.907Z" fill="#003854"/><path data-name="Caminho 32909" d="m144.526 250.562 29.85-17.349v-80.921l-29.85 17.354Z" fill="#4b83ad"/><path data-name="Caminho 32910" d="m30.719 152.888 64.6 37.544 37.444-21.771-64.6-37.544Z" fill="#4b83ad"/><path data-name="Caminho 32911" d="m30.719 152.888.176 96.907 64.6 37.544-.176-96.907Z" fill="#003854"/><path data-name="Caminho 32912" d="m95.318 190.432.176 96.907 37.447-21.765-.176-96.907Z" fill="#003854"/><path data-name="Caminho 32913" d="M149.24 208.065a5.207 5.207 0 0 0-2.363 4.093c0 1.5 1.069 2.108 2.379 1.352a5.206 5.206 0 0 0 2.363-4.089c0-1.5-1.069-2.111-2.378-1.355" fill="#ea5a44"/><path data-name="Caminho 32914" d="m100.364 275.781 29.847-17.354v-80.916l-29.847 17.354Z" fill="#4b83ad"/><path data-name="Caminho 32915" d="M125.447 218.249a5.209 5.209 0 0 0-2.363 4.093c0 1.5 1.069 2.108 2.379 1.352a5.207 5.207 0 0 0 2.363-4.089c0-1.5-1.069-2.111-2.378-1.355" fill="#ea5a44"/><path data-name="Caminho 32916" d="m199.152 282.891 175.423 105.577.573-27.276-175.423-105.578Z" fill="#23344f"/><path data-name="Caminho 32917" d="m374.574 388.468 25.488-14.2.573-27.276-25.488 14.2Z" fill="#293c5c"/><path data-name="Caminho 32918" d="m199.725 255.614 175.423 105.577 25.488-14.2-175.423-105.576Z" fill="#8097a5"/><path data-name="Caminho 32919" d="m220.732 234.042-30.188 16.817a3.738 3.738 0 0 1 3.763.435l180.682 108.743 30.188-16.817-180.682-108.743a3.737 3.737 0 0 0-3.763-.435" fill="#72abcf"/><path data-name="Caminho 32920" d="M194.732 254.478c-1.568-.944-2.87-.229-2.908 1.592a6.309 6.309 0 0 0 2.769 5.009c1.572.946 2.873.231 2.912-1.59a6.309 6.309 0 0 0-2.773-5.011" fill="#3180a9"/><path data-name="Linha 92" fill="#72abcf" d="m220.732 234.042-30.188 16.817"/><path data-name="Caminho 32921" d="M246.565 285.674c-1.568-.944-2.869-.229-2.908 1.592a6.308 6.308 0 0 0 2.769 5.009c1.568.944 2.873.231 2.911-1.59a6.316 6.316 0 0 0-2.773-5.011" fill="#3180a9"/><path data-name="Caminho 32922" d="M374.957 361.56 194.276 252.818c-2.173-1.308-3.975-.323-4.029 2.2a8.728 8.728 0 0 0 3.837 6.933l180.681 108.747c2.169 1.305 3.975.323 4.028-2.2a8.735 8.735 0 0 0-3.837-6.933M194.594 261.079a6.307 6.307 0 0 1-2.769-5.008c.038-1.821 1.34-2.536 2.908-1.592a6.308 6.308 0 0 1 2.773 5.011c-.039 1.821-1.34 2.536-2.911 1.59m26.272 15.812a6.307 6.307 0 0 1-2.769-5.009c.038-1.821 1.339-2.536 2.908-1.592a6.315 6.315 0 0 1 2.773 5.011c-.038 1.821-1.343 2.534-2.911 1.59m25.561 15.384a6.308 6.308 0 0 1-2.769-5.009c.038-1.821 1.34-2.536 2.908-1.592a6.315 6.315 0 0 1 2.773 5.011c-.038 1.821-1.343 2.534-2.911 1.59m25.558 15.382a6.307 6.307 0 0 1-2.769-5.009c.039-1.821 1.34-2.536 2.908-1.592a6.308 6.308 0 0 1 2.773 5.011c-.038 1.821-1.339 2.536-2.911 1.59m25.27 15.209a6.309 6.309 0 0 1-2.773-5.011c.038-1.821 1.339-2.536 2.912-1.59a6.308 6.308 0 0 1 2.769 5.009c-.038 1.821-1.339 2.536-2.908 1.592m25.561 15.384a6.317 6.317 0 0 1-2.773-5.011c.039-1.822 1.344-2.534 2.912-1.59a6.309 6.309 0 0 1 2.769 5.009c-.038 1.822-1.34 2.536-2.908 1.592m25.561 15.384a6.315 6.315 0 0 1-2.772-5.011c.038-1.821 1.343-2.534 2.911-1.59a6.308 6.308 0 0 1 2.769 5.009c-.038 1.821-1.339 2.536-2.908 1.592m26.267 15.811a6.31 6.31 0 0 1-2.773-5.011c.038-1.821 1.339-2.536 2.912-1.59a6.308 6.308 0 0 1 2.769 5.009c-.038 1.821-1.339 2.536-2.908 1.592" fill="#172233"/><path data-name="Caminho 32923" d="m405.177 343.22-30.188 16.817a11.66 11.66 0 0 1 5.116 9.246 3.709 3.709 0 0 1-1.609 3.369l30.193-16.817a3.708 3.708 0 0 0 1.609-3.368 11.661 11.661 0 0 0-5.116-9.246" fill="#71a2bf"/><path data-name="Caminho 32924" d="M374.988 360.037 194.307 251.294c-2.892-1.74-5.3-.424-5.372 2.934a11.661 11.661 0 0 0 5.117 9.246l180.68 108.743c2.892 1.74 5.3.424 5.373-2.934a11.659 11.659 0 0 0-5.116-9.247m-.224 10.657L194.083 261.948a8.729 8.729 0 0 1-3.837-6.933c.053-2.523 1.856-3.508 4.029-2.2L374.956 361.56a8.736 8.736 0 0 1 3.837 6.934c-.053 2.523-1.86 3.505-4.028 2.2" fill="#3180a9"/><path data-name="Caminho 32925" d="M221.571 270.702a4.444 4.444 0 0 0-.571-.411c-1.568-.944-2.87-.229-2.908 1.592a6.307 6.307 0 0 0 2.769 5.008c1.568.944 2.873.232 2.911-1.589a5.811 5.811 0 0 0-.784-2.834 6.357 6.357 0 0 0-1.418-1.765" fill="#3180a9"/><path data-name="Caminho 32926" d="M272.126 301.057c-1.568-.944-2.869-.229-2.908 1.592a6.308 6.308 0 0 0 2.769 5.009c1.572.946 2.873.231 2.912-1.59a6.309 6.309 0 0 0-2.773-5.011" fill="#3180a9"/><path data-name="Caminho 32927" d="M297.395 316.269c-1.572-.946-2.873-.231-2.912 1.59a6.31 6.31 0 0 0 2.773 5.011c1.568.944 2.87.229 2.908-1.592a6.308 6.308 0 0 0-2.769-5.009" fill="#3180a9"/><path data-name="Caminho 32928" d="M322.957 331.65c-1.568-.944-2.873-.231-2.911 1.59a6.315 6.315 0 0 0 2.773 5.011c1.569.944 2.87.229 2.908-1.592a6.308 6.308 0 0 0-2.769-5.009" fill="#3180a9"/><path data-name="Caminho 32929" d="M348.518 347.033c-1.569-.944-2.873-.231-2.912 1.59a6.317 6.317 0 0 0 2.773 5.011c1.568.944 2.87.229 2.908-1.592a6.308 6.308 0 0 0-2.769-5.009" fill="#3180a9"/><path data-name="Caminho 32930" d="M374.79 362.846c-1.572-.946-2.873-.231-2.911 1.59a6.309 6.309 0 0 0 2.773 5.011c1.568.944 2.87.229 2.908-1.592a6.308 6.308 0 0 0-2.769-5.009" fill="#3180a9"/><path data-name="Caminho 32931" d="m155.053 246.893-74.334 43.2-43.083-25.05 74.334-43.2Z" fill="#4b83ad"/><path data-name="Caminho 32932" d="m155.053 246.893-.2 111.5-74.334 43.2.2-111.5Z" fill="#172233"/><path data-name="Caminho 32933" d="m80.718 290.091-.2 111.5-43.083-25.049.2-111.5Z" fill="#003854"/><path data-name="Caminho 32934" d="m207.431 276.639-74.334 43.2-43.083-25.05 74.334-43.2Z" fill="#4b83ad"/><path data-name="Caminho 32935" d="m207.431 276.639-.2 111.5-74.334 43.2.2-111.5Z" fill="#003854"/><path data-name="Caminho 32936" d="m133.097 319.837-.2 111.5-43.083-25.049.2-111.5Z" fill="#003854"/><path data-name="Caminho 32937" d="m193.306 301.002 74.334 43.2 43.082-25.05-74.334-43.2Z" fill="#4b83ad"/><path data-name="Caminho 32938" d="m193.306 301.003.2 111.5 74.334 43.2-.2-111.5Z" fill="#172233"/><path data-name="Caminho 32939" d="m267.64 344.201.2 111.5 43.083-25.049-.2-111.5Z" fill="#003854"/><path data-name="Caminho 32940" d="m271.879 443.133 34.343-19.967v-93.1l-34.342 19.968Z" fill="#4b83ad"/><path data-name="Caminho 32941" d="m140.928 330.748 74.334 43.2 43.083-25.05-74.334-43.2Z" fill="#4b83ad"/><path data-name="Caminho 32942" d="m140.928 330.744.2 111.5 74.334 43.2-.2-111.5Z" fill="#003854"/><path data-name="Caminho 32943" d="m215.262 373.947.2 111.5 43.083-25.049-.2-111.5Z" fill="#003854"/><path data-name="Caminho 32944" d="M277.304 394.235a5.992 5.992 0 0 0-2.719 4.709c0 1.727 1.23 2.425 2.737 1.556a5.991 5.991 0 0 0 2.719-4.7c-.005-1.732-1.23-2.43-2.737-1.56" fill="#ea5a44"/><path data-name="Caminho 32945" d="m221.064 472.15 34.343-19.967v-93.1l-34.343 19.967Z" fill="#4b83ad"/><path data-name="Caminho 32946" d="M249.923 405.953a5.992 5.992 0 0 0-2.719 4.709c0 1.727 1.23 2.425 2.737 1.555a5.991 5.991 0 0 0 2.719-4.705c-.005-1.732-1.23-2.43-2.737-1.56" fill="#ea5a44"/><g data-name="Grupo 11671"><g data-name="Grupo 11670"><g data-name="Grupo 11669" clip-path="url(#af)" transform="translate(216.465 244.915)"><g data-name="Grupo 11596" style="mix-blend-mode:normal;isolation:isolate"><g data-name="Grupo 11595"><g data-name="Grupo 11594" clip-path="url(#af)"><g data-name="Grupo 11590"><g data-name="Grupo 11589"><g data-name="Grupo 11588" clip-path="url(#ag)"><g data-name="Grupo 11587" opacity=".2"><g data-name="Grupo 11586"><g data-name="Grupo 11585" clip-path="url(#ah)" transform="translate(.043 1.12)"><path data-name="Caminho 32947" d="M20.697 4.278 13.089.243a2.643 2.643 0 0 0-2.4.092L.47 6.773c-.653.411-.632 1.033.041 1.391l7.606 4.035a2.645 2.645 0 0 0 2.4-.095l10.219-6.438a.734.734 0 0 0-.046-1.388"/></g></g></g><path data-name="Caminho 32948" d="M20.697 4.279 13.091.243a2.643 2.643 0 0 0-2.4.092L.472 6.773c-.653.411-.632 1.033.041 1.391l7.606 4.035a2.646 2.646 0 0 0 2.4-.095l10.218-6.438a.734.734 0 0 0-.046-1.388" fill="#fff"/><path data-name="Caminho 32949" d="M12.763.86A1.746 1.746 0 0 0 11.91.7a1.765 1.765 0 0 0-.844.227l-9.71 6.116a.441.441 0 0 0 .024.762c1.875 1.006 7.07 3.779 7.07 3.779a1.748 1.748 0 0 0 .852.159 1.774 1.774 0 0 0 .849-.229s7.758-4.806 9.918-6.148a.377.377 0 0 0-.022-.654C18.239 3.745 12.763.859 12.763.859" fill="#7f96b5"/><path data-name="Caminho 32950" d="M11.823 1.59a1.628 1.628 0 0 0-.778.209S1.52 7.809 1.497 7.833c.023.021 7.132 3.8 7.132 3.8a1.614 1.614 0 0 0 .786.147 1.641 1.641 0 0 0 .783-.212s9.522-6.007 9.544-6.031c-.022-.021-7.133-3.8-7.133-3.8a1.614 1.614 0 0 0-.787-.147" fill="#6d819c"/></g></g></g><g data-name="Grupo 11593"><g data-name="Grupo 11592"><g data-name="Grupo 11591" clip-path="url(#ai)" transform="translate(0 4.949)"><path data-name="Caminho 32951" d="M20.742.718 10.523 7.156a2.646 2.646 0 0 1-2.4.1L.517 3.22a.841.841 0 0 1-.518-.669l.054.9a.841.841 0 0 0 .518.669l7.605 4.036a2.646 2.646 0 0 0 2.4-.1l10.218-6.438A.847.847 0 0 0 21.267.9l-.054-.9a.848.848 0 0 1-.473.718" fill="#d7dfea"/></g></g></g></g></g></g><g data-name="Grupo 11599"><g data-name="Grupo 11598"><g data-name="Grupo 11597" clip-path="url(#aj)" transform="translate(9.634 1.888)"><path data-name="Caminho 32952" d="m0 1.935 4.387 2.328 3.071-1.935L3.071 0Z" fill="#172233"/></g></g></g><g data-name="Grupo 11602"><g data-name="Grupo 11601"><g data-name="Grupo 11600" clip-path="url(#ak)" transform="translate(14.021 4.215)"><path data-name="Caminho 32953" d="m0 1.935.013.3L3.084.3 3.072 0Z" fill="#172233"/></g></g></g><g data-name="Grupo 11605"><g data-name="Grupo 11604"><g data-name="Grupo 11603" clip-path="url(#al)" transform="translate(9.634 3.823)"><path data-name="Caminho 32954" d="m0 0 .013.3L4.4 2.628l-.012-.3Z" fill="#172233"/></g></g></g><g data-name="Grupo 11608"><g data-name="Grupo 11607"><g data-name="Grupo 11606" clip-path="url(#am)" transform="translate(3.367 6.764)"><path data-name="Caminho 32955" d="m0 1.006.866.459 1.6-1.006-.866-.46Z" fill="#172233"/></g></g></g><g data-name="Grupo 11611"><g data-name="Grupo 11610"><g data-name="Grupo 11609" clip-path="url(#an)" transform="translate(4.233 7.224)"><path data-name="Caminho 32956" d="m0 1.007.013.3L1.613.3 1.6 0Z" fill="#172233"/></g></g></g><g data-name="Grupo 11614"><g data-name="Grupo 11613"><g data-name="Grupo 11612" clip-path="url(#ao)" transform="translate(3.367 7.771)"><path data-name="Caminho 32957" d="m0 0 .013.3.866.459-.012-.3Z" fill="#172233"/></g></g></g><g data-name="Grupo 11617"><g data-name="Grupo 11616"><g data-name="Grupo 11615" clip-path="url(#am)" transform="translate(4.63 7.434)"><path data-name="Caminho 32958" d="m0 1.006.866.46 1.6-1.007-.866-.46Z" fill="#172233"/></g></g></g><g data-name="Grupo 11620"><g data-name="Grupo 11619"><g data-name="Grupo 11618" clip-path="url(#ap)" transform="translate(5.496 7.894)"><path data-name="Caminho 32959" d="m.001 1.006.013.3 1.6-1.007-.013-.3Z" fill="#172233"/></g></g></g><g data-name="Grupo 11623"><g data-name="Grupo 11622"><g data-name="Grupo 11621" clip-path="url(#ao)" transform="translate(4.63 8.441)"><path data-name="Caminho 32960" d="m0 0 .013.3.866.459-.012-.3Z" fill="#172233"/></g></g></g><g data-name="Grupo 11626"><g data-name="Grupo 11625"><g data-name="Grupo 11624" clip-path="url(#am)" transform="translate(5.893 8.104)"><path data-name="Caminho 32961" d="m0 1.007.866.46L2.466.46 1.6 0Z" fill="#172233"/></g></g></g><g data-name="Grupo 11629"><g data-name="Grupo 11628"><g data-name="Grupo 11627" clip-path="url(#ap)" transform="translate(6.759 8.564)"><path data-name="Caminho 32962" d="m0 1.012.013.3 1.6-1.007-.013-.3Z" fill="#172233"/></g></g></g><g data-name="Grupo 11632"><g data-name="Grupo 11631"><g data-name="Grupo 11630" clip-path="url(#ao)" transform="translate(5.893 9.111)"><path data-name="Caminho 32963" d="m0 0 .013.3.866.459-.012-.3Z" fill="#172233"/></g></g></g><g data-name="Grupo 11635"><g data-name="Grupo 11634"><g data-name="Grupo 11633" clip-path="url(#am)" transform="translate(7.156 8.775)"><path data-name="Caminho 32964" d="m0 1.007.866.459L2.466.46 1.6 0Z" fill="#172233"/></g></g></g><g data-name="Grupo 11638"><g data-name="Grupo 11637"><g data-name="Grupo 11636" clip-path="url(#ap)" transform="translate(8.022 9.234)"><path data-name="Caminho 32965" d="m0 1.006.013.3 1.6-1.007-.013-.3Z" fill="#172233"/></g></g></g><g data-name="Grupo 11641"><g data-name="Grupo 11640"><g data-name="Grupo 11639" clip-path="url(#ao)" transform="translate(7.156 9.781)"><path data-name="Caminho 32966" d="m0 0 .013.3.866.459-.013-.3Z" fill="#172233"/></g></g></g><g data-name="Grupo 11644"><g data-name="Grupo 11643"><g data-name="Grupo 11642" clip-path="url(#aq)" transform="translate(7.106 4.226)"><path data-name="Caminho 32967" d="m0 1.189 2.1 1.112 1.888-1.19-2.1-1.112Z" fill="#172233"/></g></g></g><g data-name="Grupo 11647"><g data-name="Grupo 11646"><g data-name="Grupo 11645" clip-path="url(#ar)" transform="translate(9.201 5.338)"><path data-name="Caminho 32968" d="m0 1.19.013.3L1.901.301l-.013-.3Z" fill="#172233"/></g></g></g><g data-name="Grupo 11650"><g data-name="Grupo 11649"><g data-name="Grupo 11648" clip-path="url(#as)" transform="translate(7.106 5.415)"><path data-name="Caminho 32969" d="m0 0 .013.3 2.1 1.112-.012-.3Z" fill="#172233"/></g></g></g><g data-name="Grupo 11653"><g data-name="Grupo 11652"><g data-name="Grupo 11651" clip-path="url(#at)" transform="translate(11.681 6.127)"><path data-name="Caminho 32970" d="m0 .342 1.129.6L1.672.6.543 0Z" fill="#fff"/></g></g></g><g data-name="Grupo 11656"><g data-name="Grupo 11655"><g data-name="Grupo 11654" clip-path="url(#au)" transform="translate(12.81 6.726)"><path data-name="Caminho 32971" d="m-.004.342.013.3L.552.3.54 0Z" fill="#fff"/></g></g></g><g data-name="Grupo 11659"><g data-name="Grupo 11658"><g data-name="Grupo 11657" clip-path="url(#av)" transform="translate(11.681 6.47)"><path data-name="Caminho 32972" d="m0 0 .013.3 1.129.6L1.13.6Z" fill="#fff"/></g></g></g><g data-name="Grupo 11662"><g data-name="Grupo 11661"><g data-name="Grupo 11660" clip-path="url(#at)" transform="translate(10.659 6.771)"><path data-name="Caminho 32973" d="m.001.343 1.129.6.543-.342-1.129-.6Z" fill="#fff"/></g></g></g><g data-name="Grupo 11665"><g data-name="Grupo 11664"><g data-name="Grupo 11663" clip-path="url(#au)" transform="translate(11.788 7.37)"><path data-name="Caminho 32974" d="m0 .342.013.3L.556.3.543 0Z" fill="#fff"/></g></g></g><g data-name="Grupo 11668"><g data-name="Grupo 11667"><g data-name="Grupo 11666" clip-path="url(#av)" transform="translate(10.659 7.113)"><path data-name="Caminho 32975" d="m.001 0 .013.3 1.129.6-.012-.3Z" fill="#fff"/></g></g></g></g></g></g><path data-name="Caminho 32976" d="m542.647 238.478 64.6 37.544 37.443-21.771-64.6-37.544Z" fill="#4b83ad"/><path data-name="Caminho 32977" d="m542.647 238.479.176 96.907 64.6 37.544-.176-96.908Z" fill="#172233"/><path data-name="Caminho 32978" d="m607.252 276.023.176 96.908 37.444-21.771-.176-96.907Z" fill="#003854"/><path data-name="Caminho 32979" d="m610.935 362.005 29.848-17.354v-80.917l-29.848 17.354Z" fill="#4b83ad"/><path data-name="Caminho 32980" d="m497.126 264.331 64.6 37.544 37.444-21.771-64.6-37.544Z" fill="#4b83ad"/><path data-name="Caminho 32981" d="m497.126 264.332.176 96.907 64.6 37.544-.176-96.908Z" fill="#003854"/><path data-name="Caminho 32982" d="m561.73 301.876.176 96.908 37.444-21.771-.176-96.908Z" fill="#003854"/><path data-name="Caminho 32983" d="M615.651 319.508a5.207 5.207 0 0 0-2.363 4.093c0 1.5 1.069 2.108 2.379 1.352a5.207 5.207 0 0 0 2.363-4.089c0-1.5-1.069-2.112-2.378-1.355" fill="#ea5a44"/><path data-name="Caminho 32984" d="m566.772 387.224 29.848-17.354v-80.916l-29.848 17.354Z" fill="#4b83ad"/><path data-name="Caminho 32985" d="M591.857 329.693a5.207 5.207 0 0 0-2.363 4.093c0 1.5 1.069 2.108 2.379 1.352a5.207 5.207 0 0 0 2.363-4.089c0-1.5-1.069-2.111-2.378-1.355" fill="#ea5a44"/><path data-name="Caminho 32986" d="m452.699 290.25 64.6 37.544 37.444-21.771-64.6-37.544Z" fill="#4b83ad"/><path data-name="Caminho 32987" d="m452.699 290.249.176 96.907 64.6 37.544-.176-96.908Z" fill="#172233"/><path data-name="Caminho 32988" d="m517.304 327.793.176 96.908 37.444-21.771-.176-96.908Z" fill="#003854"/><path data-name="Caminho 32989" d="m520.988 413.778 29.848-17.354v-80.917l-29.848 17.354Z" fill="#4b83ad"/><path data-name="Caminho 32990" d="m407.178 316.103 64.6 37.544 37.444-21.771-64.6-37.544Z" fill="#4b83ad"/><path data-name="Caminho 32991" d="m407.178 316.102.176 96.907 64.6 37.544-.176-96.908Z" fill="#003854"/><path data-name="Caminho 32992" d="m471.782 353.646.176 96.908 37.444-21.771-.176-96.908Z" fill="#003854"/><path data-name="Caminho 32993" d="M525.703 371.276a5.208 5.208 0 0 0-2.363 4.093c0 1.5 1.069 2.108 2.379 1.352a5.207 5.207 0 0 0 2.363-4.089c0-1.5-1.069-2.111-2.379-1.355" fill="#ea5a44"/><path data-name="Caminho 32994" d="m476.824 438.996 29.848-17.354v-80.916l-29.848 17.354Z" fill="#4b83ad"/><path data-name="Caminho 32995" d="M501.906 381.464a5.208 5.208 0 0 0-2.363 4.093c0 1.5 1.069 2.108 2.379 1.352a5.206 5.206 0 0 0 2.363-4.089c0-1.5-1.069-2.111-2.378-1.355" fill="#ea5a44"/></g></g></g></svg>