<svg xmlns="http://www.w3.org/2000/svg" width="725.057" height="800.8"><defs><clipPath id="a"><path data-name="Caminho 96908" d="M690.259 0H0v799.8h540.563Z" fill="#03328c" stroke="#231f20"/></clipPath><clipPath id="c"><path data-name="Retângulo 20179" fill="none" d="M0 0h254.395v60.632H0z"/></clipPath><clipPath id="d"><path data-name="Retângulo 19637" fill="none" d="M0 0h455.797v452.907H0z"/></clipPath><clipPath id="e"><path data-name="Caminho 61537" d="M221.565 2.041c-10.373 2.976-14.284 8.247-21.425 12.328a94.406 94.406 0 0 1-25.167 9.611c-6.8 1.7-19.215.765-31.968-.17-7.737-.51-15.559-1.105-22.446-1.105-21.255 0-42.936 3.656-64.191 18.62a225.007 225.007 0 0 0-22.188 17.68C16.494 75.159 5.016 92.08 0 110.272a70 70 0 0 1 12.5-6.547 48.809 48.809 0 0 1 10.032-16.409c-5.781 9.437-6.207 17.344-3.231 27.887 2.211-5.186 4.676-12.158 7.227-16.069 0 0 .425 7.907 1.275 10.543s2.721 9.012 4.846 11.9a66.441 66.441 0 0 1 12.413-24.4c-1.105 10.628 4.506 18.109 10.883 26.186-3.486-14.113 1.445-26.782 7.567-39.28 3.911-8.077 13.348-19.045 15.9-20.235 18.79 4.676 54.243 34.178 90.122 25.676 25.421-6.036 44.976-22.19 60.7-39.7 11.988-13.433 18.79-24.486 36.814-30.012 16.834-5.186 36.474-7.822 53.988-9.862 2.211-.255 5.441-.68 5.441-1.955 0-1.445-4.166-1.53-5.781-1.445-13.178.6-25.336 1.785-36.134 2.721-14.624 1.19-20.32-1.615-29.587-5.186a54.647 54.647 0 0 0-19.98-4.081 49.916 49.916 0 0 0-13.515 1.951" fill="none"/></clipPath><linearGradient id="b" x1="-.047" y1="1.087" x2=".923" y2=".047" gradientUnits="objectBoundingBox"><stop offset="0" stop-color="#ee7900"/><stop offset=".326" stop-color="#eeeb00"/><stop offset=".695" stop-color="#40a631"/><stop offset=".905" stop-color="#00a6ea"/><stop offset="1" stop-color="#4659a6"/></linearGradient></defs><g data-name="Grupo 46510"><g data-name="Grupo 46507"><path data-name="Caminho 96906" d="M690.759.5H.5v799.8h540.563Z" fill="#03328c"/><g data-name="Grupo 46506" clip-path="url(#a)" transform="translate(.5 .5)"><path data-name="Caminho 96907" d="M648.878 740.452a9.935 9.935 0 0 0-14.163 0 10.219 10.219 0 0 0-.9 13.23l-88.119 89.2-58.133-15.948 176.052-178.219 52.644 14.385a8.711 8.711 0 0 0 2.482 6.6 8.536 8.536 0 0 0 12.17 0 8.782 8.782 0 0 0 0-12.319 8.515 8.515 0 0 0-7.281-2.437l-13.978-52.822 132.437-134.063 61.393 16.7 89.037-90.133a9.909 9.909 0 0 0 13.067-.911 10.244 10.244 0 0 0 0-14.341 9.935 9.935 0 0 0-14.163 0 10.219 10.219 0 0 0-.9 13.23l-87.889 88.97-112.8-30.674a8.749 8.749 0 0 0-1.519-6.126l77.326-78.281a8.507 8.507 0 0 0 11.074-.911 8.782 8.782 0 0 0 0-12.319 8.5 8.5 0 0 0-6.837-2.481l-14.13-53.123 88.044-89.133a9.214 9.214 0 0 0 12.615-.452 9.5 9.5 0 0 0 2.541-8.511 9.381 9.381 0 0 0-2.63-5.711 9.215 9.215 0 0 0-13.133 0 10.84 10.84 0 0 0-.83 13.126l-87.244 88.319-15.4-57.881 83.867-84.901a8.479 8.479 0 0 0 9.778-1.652 8.773 8.773 0 0 0 0-12.289 8.45 8.45 0 0 0-5.511-2.489l-14-52.963 85.778-86.741 29.655 111.923a9.223 9.223 0 0 0-3.859 2.3 9.493 9.493 0 0 0 0 13.3 9.215 9.215 0 0 0 13.133 0 9.493 9.493 0 0 0 0-13.3 9.19 9.19 0 0 0-7.9-2.622L1000.771-4.785l45.1-45.607-1-1.007-44.526 45.022-48.982-184.838-.1-.4-58.933-16.037 42.778-43.3-1-1.007-43.36 43.885-115.63-31.467 39.578-40.067-1-1.007-40.156 40.644-.289.289-43.9 44.444-117.8-32.074a9.483 9.483 0 0 0-2.548-8.393 9.1 9.1 0 0 0-3.793-2.274 9.231 9.231 0 0 0-10.244 1.985 9.524 9.524 0 0 0 0 13.333 9.278 9.278 0 0 0 4.874 2.593 9.176 9.176 0 0 0 9.163-2.333 9.408 9.408 0 0 0 2.163-3.533l117.037 31.867-41.573 42.082-59.444-16.081a8.646 8.646 0 0 0-2.452-5.489 8.5 8.5 0 0 0-12.133 0 8.726 8.726 0 0 0-1.63 9.9L444.578 4.792a8.444 8.444 0 0 0-6.007-.533l-13.893-52.344 132.871-134.5a9.106 9.106 0 0 0 4.37 1.674 9.186 9.186 0 0 0 8.585-2.5 9.493 9.493 0 0 0 0-13.3 9.211 9.211 0 0 0-5.3-2.63 9.21 9.21 0 0 0-8.844 2.437 9.489 9.489 0 0 0-.452 12.77l-131.9 133.519-15.73-59.318 87.763-88.837a9.914 9.914 0 0 0 13.044-.926 10.244 10.244 0 0 0 0-14.341 9.935 9.935 0 0 0-14.163 0 10.213 10.213 0 0 0-.877 13.252l-88.333 89.422-60.259-16.267-43.437 43.978-15.422-58.556 87.541-89.7a9.908 9.908 0 0 0 13.059-.911 10.244 10.244 0 0 0 0-14.341 9.935 9.935 0 0 0-14.163 0 10.21 10.21 0 0 0-.889 13.23l-88.689 90.881 16.259 61.733-42.978 43.5-52.726-14.3a8.724 8.724 0 0 0-2.43-7.156 8.536 8.536 0 0 0-12.17 0 8.766 8.766 0 0 0-.9 11.207l-77.322 78.287a8.511 8.511 0 0 0-11.044.926 8.782 8.782 0 0 0 0 12.319 8.487 8.487 0 0 0 6.807 2.481l14.14 53.556-44.096 44.644 32.911 123.244-132.289 133.889-15.822-59.237 88.052-89.129a9.9 9.9 0 0 0 13.067-.911 10.244 10.244 0 0 0 0-14.341 9.935 9.935 0 0 0-14.163 0 10.219 10.219 0 0 0-.9 13.23l-89.2 90.3 31.463 117.792a8.455 8.455 0 0 0-1.563 1.23 8.768 8.768 0 0 0-1.948 9.244L-180.851 638.97a8.509 8.509 0 0 0-9.133 1.97 8.782 8.782 0 0 0 0 12.318 8.485 8.485 0 0 0 5.659 2.511l30.126 113.8 30.615 115.081a8.583 8.583 0 0 0-2.519 1.741 8.782 8.782 0 0 0 0 12.319 8.536 8.536 0 0 0 12.17 0 8.587 8.587 0 0 0 1.726-2.563l227.6 61.741a8.719 8.719 0 0 0 2.444 6.978 8.536 8.536 0 0 0 12.17 0 8.774 8.774 0 0 0 .919-11.185l77.015-77.966a8.507 8.507 0 0 0 11.074-.911 8.669 8.669 0 0 0 1.867-2.83l105.889 29.011a8.719 8.719 0 0 0 2.489 6.467 8.536 8.536 0 0 0 12.17 0 8.775 8.775 0 0 0 .9-11.207l77.078-78.03a8.5 8.5 0 0 0 11.067-.911 8.717 8.717 0 0 0 1.748-2.607l113.541 31.156.785.215 89.274-90.37a9.909 9.909 0 0 0 13.067-.911 10.244 10.244 0 0 0 0-14.341Zm344.53-359.067a7.14 7.14 0 0 1 10.17 0 7.346 7.346 0 0 1 0 10.3 7.14 7.14 0 0 1-10.17 0 7.353 7.353 0 0 1 0-10.3ZM707.334 604.459l13.592 51.356a8.609 8.609 0 0 0-2.193 1.563 8.714 8.714 0 0 0-1.9 2.919l-50.922-13.912 41.422-41.926Zm330.222-492.844a8.051 8.051 0 0 1 0 11.274 7.816 7.816 0 0 1-11.141 0 8.044 8.044 0 0 1 0-11.274 7.816 7.816 0 0 1 11.141 0Zm-437.43-333.1a7.782 7.782 0 0 1-3.244-1.941 8.044 8.044 0 0 1 0-11.274 7.779 7.779 0 0 1 7.815-1.963 7.79 7.79 0 0 1 2.452 1.667 8.076 8.076 0 0 1 0 11.311 7.835 7.835 0 0 1-7.03 2.2Zm-225.111-23.656a7.14 7.14 0 0 1 10.17 0 7.347 7.347 0 0 1 0 10.3 7.141 7.141 0 0 1-10.17 0 7.347 7.347 0 0 1 0-10.3ZM123.378 97.17l-13.7-51.9a8.57 8.57 0 0 0 2.622-1.793 8.768 8.768 0 0 0 .881-11.23l77.326-78.274a8.507 8.507 0 0 0 11.074-.911 8.681 8.681 0 0 0 1.652-2.422l51.2 13.881L123.393 97.17ZM50.741 239.689a7.149 7.149 0 0 1 10.178 0 7.346 7.346 0 0 1 0 10.3 7.14 7.14 0 0 1-10.17 0 7.346 7.346 0 0 1 0-10.3Zm446.17-451.7a7.14 7.14 0 0 1 10.17 0 7.347 7.347 0 0 1 0 10.3 7.14 7.14 0 0 1-10.17 0 7.347 7.347 0 0 1 .001-10.304ZM300.119-79.726l13.7 52.03a8.448 8.448 0 0 0-2.822 1.9 8.707 8.707 0 0 0-1.578 2.274l-51.122-13.863ZM111.037 266.222 78.556 144.57l42.941-43.474 15.889 60.17 16.341 61.741Zm134.415-136.074-13.718-51.844a8.579 8.579 0 0 0 2.459-1.7 8.771 8.771 0 0 0 1.763-2.63l51.252 13.915-41.748 42.266ZM377.83-3.859l-.289.289-88.037 89.118-52.867-14.356a8.711 8.711 0 0 0-2.452-6.919 8.536 8.536 0 0 0-12.17 0 8.782 8.782 0 0 0 0 12.319A8.516 8.516 0 0 0 229 79.059l14.141 53.422-87.118 88.193-15.919-60.141-16.311-61.77 132.2-133.815 52.6 14.267A8.726 8.726 0 0 0 311-13.474a8.536 8.536 0 0 0 12.17 0 8.782 8.782 0 0 0 0-12.319 8.477 8.477 0 0 0-6.578-2.5l-14.163-53.763 43.449-43.981 59.463 16.052 16.37 61.711-43.874 44.415Zm564.111 205.066a8.006 8.006 0 0 1 2.289-5.452 7.838 7.838 0 0 1 11.17 0 7.057 7.057 0 0 1-.081 10.385 7.816 7.816 0 0 1-11.141 0 7.954 7.954 0 0 1-2.237-4.933ZM764.83 389.178l.393.1 88.207-89.3 13.7 51.489a8.526 8.526 0 0 0-2.593 1.778 8.766 8.766 0 0 0-.9 11.207l-77.326 78.281a8.507 8.507 0 0 0-11.074.911 8.809 8.809 0 0 0-1.837 2.778l-105.722-28.741a8.711 8.711 0 0 0-2.452-6.919 8.536 8.536 0 0 0-12.17 0 8.782 8.782 0 0 0 0 12.319 8.508 8.508 0 0 0 6.985 2.467l14.207 53.807-212.262 214.882-9.3 9.556-59.378-15.733 171.559-173.675a8.507 8.507 0 0 0 11.074-.911 8.782 8.782 0 0 0 0-12.318 8.479 8.479 0 0 0-6.741-2.489l-14.133-53.585 87.844-89.222 121.919 33.325Zm-212.067 58.237 13.689 51.911a8.572 8.572 0 0 0-2.681 1.822 8.766 8.766 0 0 0-.9 11.207L307.445 770.933a8.472 8.472 0 0 0-5.889-1.555l-14.1-53.393 88.43-89.37 133.792-135.43 43.089-43.77Zm190.1-116.007a8.5 8.5 0 0 0 12.133 0 8.726 8.726 0 0 0 1.63-9.9l80.778-81.77 15.4 57.882-87.563 88.644-180.892-49.442 41.659-42.1 114.385 31.1a8.652 8.652 0 0 0 2.459 5.585ZM98.171 830.266l77.507-78.466a8.507 8.507 0 0 0 11.074-.911 8.781 8.781 0 0 0 0-12.318 8.5 8.5 0 0 0-7.126-2.452L165.519 682.8l42.918-43.444 52.6 14.267a8.733 8.733 0 0 0 2.415 7.274 8.492 8.492 0 0 0 7.207 2.444l14.1 53.378L107.8 895.548l-13.74-52.044a8.5 8.5 0 0 0 3.23-2.03 8.766 8.766 0 0 0 .9-11.207Zm328.37-647.985-38.133 38.541a8.512 8.512 0 0 0-5.763-2.333l-14.259-53.882 42.237-42.7 15.919 60.378Zm-12.77-60.022 56.881 15.444-41.7 42.141-15.181-57.585Zm-32.548 96.356a8.54 8.54 0 0 0-4.726 2.422 8.744 8.744 0 0 0-1.578 2.281l-50.941-13.814 43.252-43.726 13.985 52.844Zm-7.133 7.43a8.731 8.731 0 0 0 1.511 6.193L209.163 400.726a8.522 8.522 0 0 0-11.052.926 8.782 8.782 0 0 0 0 12.319 8.477 8.477 0 0 0 6.97 2.467l14.185 53.585-42.666 43.192-32.34-121.667 133.407-135.222 44-44.489 52.411 14.215ZM207.815 415.689a8.671 8.671 0 0 0 2.474-1.711 8.777 8.777 0 0 0 .881-11.23L377.6 234.267a8.5 8.5 0 0 0 8.052 1.059l13.837 52.274-177.9 180.1-13.763-52Zm179.119-181.015a8.381 8.381 0 0 0 1.733-1.319 8.765 8.765 0 0 0 .689-11.467l37.607-38.007 15.793 59.911-42.126 42.644-13.7-51.756Zm42.437-53.237 41.874-42.322 29.778 112.763a8.365 8.365 0 0 0-1.126.933 8.749 8.749 0 0 0-.941 11.119L461.2 302.155l-31.822-120.718Zm46.481-46.978 44.052-44.518 14.844 63.467-42.74 42.236-16.156-61.185Zm148.593 159.83-41.659 42.1-60.393-16.511-.363-.1-13.844-52.481a8.473 8.473 0 0 0 3.837-2.207 8.728 8.728 0 0 0 .911-1.133l111.5 30.319ZM568.66 273.2l40.6-41.1 59.956 16.941-40.156 40.578Zm-45.77 49.837 57.541 15.726-42.153 42.607-15.385-58.333Zm12.941 60.133-45.274-12.882 45.111 12.267Zm-16.933-64.222-55.749-14.733 37.793-38.259a8.483 8.483 0 0 0 4.4 1.622l13.548 51.378Zm48.193-46.185-52.585-14.3a8.644 8.644 0 0 0-2.467-5.659 8.462 8.462 0 0 0-5.578-2.5l-14.024-53.082 42.7-42.2 14.059 60.1 58.5 16.533-40.607 41.111Zm-108.3 31.822-42.074 42.593-15.657-59.163 42.126-42.644 15.615 59.215Zm-58.889-15.407 15.659 59.163-84.353 85.392a8.518 8.518 0 0 0-11.1.889 8.782 8.782 0 0 0 0 12.319 8.484 8.484 0 0 0 6.919 2.467l14.163 53.5-42.912 43.447-52.681-14.289a8.729 8.729 0 0 0-2.422-7.207 8.486 8.486 0 0 0-7.119-2.452l-14.067-53.148 177.9-180.1Zm-70.133 159.5a8.584 8.584 0 0 0 2.519-1.741 8.774 8.774 0 0 0 .919-11.185l84.3-85.341 58.6 15.933-132.588 134.234-13.741-51.9Zm88.889-99.43 43.333-43.867 57.326 15.156 15.933 60.422-116.593-31.7Zm-67.517 211.448-51.281-13.911 41.763-42.282 13.7 51.77a8.389 8.389 0 0 0-2.363 1.659 8.641 8.641 0 0 0-1.83 2.763Zm-187.933 124.43 13.711 51.789a8.592 8.592 0 0 0-2.333 1.637 8.766 8.766 0 0 0-.9 11.207L96.178 828.23a8.489 8.489 0 0 0-6.548-1.489L75.645 773.77l87.563-88.644Zm110.141-22.637a8.585 8.585 0 0 0 2.267-1.6 8.782 8.782 0 0 0 0-12.319 8.474 8.474 0 0 0-13.763 2.311l-51.112-13.866 86.822-87.889 52.948 14.363a8.714 8.714 0 0 0 2.459 6.77 8.536 8.536 0 0 0 12.17 0 8.782 8.782 0 0 0 0-12.319 8.487 8.487 0 0 0-7.1-2.452l-14.111-53.311L476.66 367.815l59.6 16.963 16.1 61.03-43.667 44.356-133.789 135.429-87.852 88.785-13.7-51.889Zm265.348-279.526 43.311-43.77 59.341 16.222-86.689 88.059-15.956-60.5Zm191.1-576.622 176.119 47.956 30.326 113.474a9.069 9.069 0 0 0-3.474 2.185 9.493 9.493 0 0 0 0 13.3 9.215 9.215 0 0 0 13.133 0 9.493 9.493 0 0 0 0-13.3 9.215 9.215 0 0 0-8.3-2.585l-30.43-113.856-.1-.393-176.122-47.952 43.037-43.57 176.141 47.941L999.201-5.207l-85.778 86.74-46.511-175.948a8.473 8.473 0 0 0 1.237-1.022 8.773 8.773 0 0 0 0-12.289 8.5 8.5 0 0 0-12.133 0 8.393 8.393 0 0 0-1.03 1.281L688.23-151.563l41.57-42.082Zm203.97 164.63a7.816 7.816 0 0 1 11.141 0 8.058 8.058 0 0 1 0 11.274 7.816 7.816 0 0 1-11.141 0 8.044 8.044 0 0 1-.004-11.275ZM683.615-146.911l117.452 31.778-44.589 45.14 1 1.007 45.17-45.726 50.926 13.778a8.626 8.626 0 0 0 2.452 5.474 8.441 8.441 0 0 0 5.444 2.481l60.945 230.557a8.539 8.539 0 0 0-2.815 10.874l-166.948 169a8.479 8.479 0 0 0-9.778 1.652 9.177 9.177 0 0 0-.963 1.193l-111.273-30.26 40.14-40.563 52.541 14.841a9.45 9.45 0 0 0 2.585 8.03 9.215 9.215 0 0 0 13.133 0 9.467 9.467 0 0 0 .452-12.741l82.771-83.789-1-1.007-82.77 83.793a9.192 9.192 0 0 0-12.585.452 9.3 9.3 0 0 0-2.259 3.874l-113.237-32 89.606-90.712-1-1.007-90.17 91.274-58.474-16.527-14.059-60.118L579.66 111l-.985-1.022-42.741 42.237-28.3-120.993 175.981-178.155Zm43.281 406.985a7.816 7.816 0 0 1 11.141 0 8.051 8.051 0 0 1 0 11.274 7.816 7.816 0 0 1-11.141 0 8.044 8.044 0 0 1 .001-11.274ZM614.978-159.637a8.479 8.479 0 0 0 9.778-1.652 8.234 8.234 0 0 0 1.022-1.267l56.267 15.222L506.078 30.8l13.452 57.5-44.085 44.567L445.6 19.837a9.023 9.023 0 0 0 1.348-1.111 8.739 8.739 0 0 0 1.63-9.9L614.993-159.63ZM435.971 5.474a8.475 8.475 0 0 0-1.17.97 8.773 8.773 0 0 0 0 12.289 8.495 8.495 0 0 0 5.3 2.474l29.944 113.385-57.119-15.511L380.615-3.485l41.756-42.274 13.593 51.23Zm-93.148 94.555-51.734-14.051L377.963-1.97l31.674 120.155-48.959-13.296a9.468 9.468 0 0 0-2.5-8.585 9.215 9.215 0 0 0-13.133 0 9.312 9.312 0 0 0-2.222 3.733Zm-.489 2.822a9.4 9.4 0 0 0 2.711 6.733 9.181 9.181 0 0 0 8.015 2.607l13.756 51.978-44.407 44.9-53.009-14.38a8.722 8.722 0 0 0-2.437-7.022 8.488 8.488 0 0 0-6.941-2.467l-14.144-53.459 42.9-43.426 53.556 14.537Zm12.1 9a9.094 9.094 0 0 0 3.744-2.266 9.211 9.211 0 0 0 1.474-2.03l49.793 13.519L367.971 163l-13.541-51.156Zm203.937-307.562a7.781 7.781 0 0 1 6.563-2.237 7.73 7.73 0 0 1 3.593 2.052 8.075 8.075 0 0 1 0 11.311 7.807 7.807 0 0 1-6.341 2.267 7.8 7.8 0 0 1-3.822-2.111 8.044 8.044 0 0 1 0-11.274ZM-7.259 457.904l-14.7-55.03 176.1-178.274 15.711 59.348-82.5 83.526a8.507 8.507 0 0 0-11.074.911 8.782 8.782 0 0 0 0 12.319 8.478 8.478 0 0 0 6.7 2.489l28.289 107.122a8.493 8.493 0 0 0-2.467 1.711 8.656 8.656 0 0 0-1.748 2.615L3.215 466.155a8.7 8.7 0 0 0-2.5-5.933 8.517 8.517 0 0 0-7.974-2.318Zm16.37 68.437L-168.163 705.8l-13.333-50.363a8.506 8.506 0 0 0 3.674-2.163 8.782 8.782 0 0 0 0-12.319c-.17-.17-.363-.3-.548-.452l166.474-168.518c.156.185.274.378.444.556a8.536 8.536 0 0 0 12.17 0A8.577 8.577 0 0 0 2.799 469l103.557 28.415a8.7 8.7 0 0 0 2.444 6.933 8.536 8.536 0 0 0 12.17 0 8.782 8.782 0 0 0 0-12.319 8.508 8.508 0 0 0-6.985-2.467L85.734 382.548a8.548 8.548 0 0 0 2.719-1.844 8.766 8.766 0 0 0 .9-11.207l83.659-84.689-16.56-62.542 87.119-88.193 13.726 51.859a8.493 8.493 0 0 0-2.5 1.733 8.782 8.782 0 0 0 0 12.319 8.536 8.536 0 0 0 12.17 0 8.788 8.788 0 0 0 1.711-2.533l51.43 13.948-43.43 43.9-133.7 135.523-.289.289 32.763 123.267-44.533 45.081L9.504 526.444l-.393-.1Zm-124.155 359.155a8.457 8.457 0 0 0-5.822-1.563l-30.615-115.089-16.267-61.452L9.534 527.933l120.23 32.7-177.637 179.83 13.97 53.837a8.5 8.5 0 0 0-3.23 2.03 8.774 8.774 0 0 0-.9 11.207l-77.015 77.963Zm82.5-91.57-13.763-53.03 265.996-269.267 13.667 51.615a8.543 8.543 0 0 0-2.341 1.644 8.782 8.782 0 0 0 0 12.319 8.536 8.536 0 0 0 12.17 0 8.907 8.907 0 0 0 1.63-2.37l51.17 13.881-86.822 87.889-52.83-14.333a8.7 8.7 0 0 0-2.444-6.993 8.536 8.536 0 0 0-12.17 0 8.782 8.782 0 0 0 0 12.318 8.506 8.506 0 0 0 6.911 2.474l14.156 53.482-88.719 89.815 14.2 53.793a8.536 8.536 0 0 0-3.163 2.007 8.728 8.728 0 0 0-1.726 2.563l-105.874-28.644a8.709 8.709 0 0 0-2.467-6.748 8.513 8.513 0 0 0-7.578-2.407Zm188.152-168.889 51.244 13.9-41.774 42.278-13.729-51.874a8.291 8.291 0 0 0 4.259-4.311Zm330.385 201.466-53.089-14.563a8.753 8.753 0 0 0-1.548-5.83L597.623 637.8a8.506 8.506 0 0 0 12.859-3.6l51.556 14.089Zm178.348-180.54-53.193-14.533a8.74 8.74 0 0 0-2.452-6.859 8.536 8.536 0 0 0-12.17 0 8.766 8.766 0 0 0-.9 11.207L429.363 804.089a8.507 8.507 0 0 0-11.074.911 8.766 8.766 0 0 0-.9 11.207l-77.081 78.03a8.507 8.507 0 0 0-11.074.911 8.734 8.734 0 0 0-1.941 3.044L221.46 869.2a8.705 8.705 0 0 0-2.467-6.7 8.536 8.536 0 0 0-12.17 0 8.766 8.766 0 0 0-.9 11.207l-77.004 77.959a8.49 8.49 0 0 0-12.83 3.467L-111.504 893.4a8.729 8.729 0 0 0-1.548-5.881l77.015-77.963a8.507 8.507 0 0 0 11.074-.911 8.593 8.593 0 0 0 1.837-2.785l105.778 28.621a8.715 8.715 0 0 0 2.444 7 8.513 8.513 0 0 0 7.578 2.407l14.37 54.43 178.111-180 13.681 51.822a8.494 8.494 0 0 0-2.467 1.711 8.782 8.782 0 0 0 0 12.319 8.536 8.536 0 0 0 12.17 0 8.766 8.766 0 0 0 .9-11.207l82.719-83.733 60.963 16.156 9.867-10.141 211.69-214.297 15.793 59.822 16.437 62.1-42.57 43.1Zm44.874-45.43-16.015-60.5-30.429-115.248a8.492 8.492 0 0 0 2.467-1.711 8.77 8.77 0 0 0 1.763-2.63l105.777 28.763a8.7 8.7 0 0 0 2.467 6.756 8.477 8.477 0 0 0 13.778-2.341l51.482 14-131.289 132.9Zm-72.5 152.244a7.347 7.347 0 0 1 0-10.3 7.14 7.14 0 0 1 10.17 0 7.354 7.354 0 0 1 0 10.3 7.14 7.14 0 0 1-10.174.001Z" fill="#1f6ea3" opacity=".05"/></g><path data-name="Caminho 96909" d="M690.759.5H.5v799.8h540.563Z" fill="none" stroke="#231f20"/><path data-name="Caminho 96910" d="M0 800 170.865 0h35.92L23.148 800Z" transform="translate(518.272 .5)" fill="url(#b)"/></g><g fill="#fff"><path data-name="Caminho 75201" d="m245.913 440.193-4.672 26.581h6.246l4.7-26.581Z"/><g data-name="Grupo 45480" transform="translate(241.241 438.819)" clip-path="url(#c)"><path data-name="Caminho 75202" d="M20.011 11.967a6.908 6.908 0 0 1 5.846-3.2c4.2 0 5.971 2.623 5.971 5.671a10.486 10.486 0 0 1-.2 2.024l-2.024 11.493h-6l1.774-10.143a7.148 7.148 0 0 0 .2-1.574 2.248 2.248 0 0 0-2.473-2.523c-2.223 0-3.523 1.849-3.947 4.1l-1.8 10.143h-6l2.607-14.819c.15-.949.45-2.673.55-3.872h5.746c-.05.6-.2 1.9-.3 2.7h.076Z"/><path data-name="Caminho 75203" d="M42.795 11.967a6.908 6.908 0 0 1 5.846-3.2c4.2 0 5.971 2.623 5.971 5.671a10.486 10.486 0 0 1-.2 2.024l-2.024 11.493h-6l1.774-10.143a7.148 7.148 0 0 0 .2-1.574 2.248 2.248 0 0 0-2.473-2.523c-2.223 0-3.523 1.849-3.947 4.1l-1.8 10.143h-6l2.6-14.815c.15-.949.45-2.673.55-3.872h5.746c-.05.6-.2 1.9-.3 2.7h.075Z"/><path data-name="Caminho 75204" d="M57.259 20.261c0-6.2 4.347-11.567 11.417-11.567 5.521 0 9.618 3.123 9.618 8.219 0 6.3-4.347 11.567-11.517 11.567-5.4 0-9.493-3.123-9.493-8.219m11.142-6.645c-3.2 0-5.246 2.823-5.246 6a3.645 3.645 0 0 0 3.9 3.9c3.2 0 5.3-2.748 5.3-5.971a3.71 3.71 0 0 0-3.954-3.951"/><path data-name="Caminho 75205" d="M90.336 27.955h-6.518l-3.45-18.687h6.35l1.519 12.27h.125l6.5-12.266h6.52Z"/><path data-name="Caminho 75206" d="m118.516 17.038-1.274 7.271a25.018 25.018 0 0 0-.375 3.647h-5.321a14.242 14.242 0 0 1 .15-2h-.075a7.1 7.1 0 0 1-5.7 2.448c-2.623 0-5.771-1.2-5.771-4.946 0-6 6.6-7.27 12.841-7.27a2.388 2.388 0 0 0 .075-.874c0-1.474-1.1-2.1-2.923-2.1a8.582 8.582 0 0 0-4.922 1.774l-2.473-3.448a13.634 13.634 0 0 1 8.219-2.823c4.472 0 7.794 1.874 7.794 6.046a12.339 12.339 0 0 1-.225 2.3m-6.415 2.746c-3 0-6.5.425-6.5 2.7 0 1.5 1.249 1.924 2.473 1.924a4.428 4.428 0 0 0 4.351-3.724l.2-.9h-.525Z"/><path data-name="Caminho 75207" d="m121.139 13.815.824-4.547h2.973l.874-4.946h5.846l-.874 4.95h3.972l-.824 4.547h-3.872l-1.349 7.32a4.837 4.837 0 0 0-.075 1c0 1.249.749 1.624 1.949 1.624a7.733 7.733 0 0 0 1.649-.225l-.55 4.322a10.144 10.144 0 0 1-3.3.575c-3.6 0-5.821-1.4-5.821-4.547a13.973 13.973 0 0 1 .225-2.148l1.424-7.919h-3.071Z"/><path data-name="Caminho 75208" d="m135.004 27.955 3.273-18.687h6.046l-3.348 18.687Zm7.095-21.36a3.019 3.019 0 0 1-3.273-3 3.516 3.516 0 0 1 3.572-3.6 3.04 3.04 0 0 1 3.2 3 3.53 3.53 0 0 1-3.5 3.6"/><path data-name="Caminho 75209" d="M154.441 11.967a6.908 6.908 0 0 1 5.846-3.2c4.2 0 5.971 2.623 5.971 5.671a10.486 10.486 0 0 1-.2 2.024l-2.024 11.493h-6l1.774-10.143a9.048 9.048 0 0 0 .2-1.574 2.248 2.248 0 0 0-2.473-2.523c-2.223 0-3.523 1.849-3.947 4.1l-1.8 10.143h-6l2.6-14.815c.15-.949.45-2.673.575-3.872h5.746c-.05.6-.2 1.9-.3 2.7h.075Z"/><path data-name="Caminho 75210" d="m185.192 11.742.425-2.473h5.675l-2.975 16.963c-1.2 6.9-4.622 10.742-11.967 10.742-3.223 0-7.195-1.049-9.318-3.148l3.373-4.247a8.127 8.127 0 0 0 5.9 2.523c3.947 0 5.4-2.248 6.046-5.221l.275-1.249h-.134a7.424 7.424 0 0 1-5.742 2.522c-5 0-7.869-3.223-7.869-7.794 0-6.42 4.272-11.567 10.368-11.567 2.7 0 4.8 1.049 5.846 2.973h.1Zm-6.518 11.792c3.148 0 5.371-2.848 5.371-6a3.7 3.7 0 0 0-3.947-3.947c-3.273 0-5.3 2.823-5.3 6a3.646 3.646 0 0 0 3.872 3.947"/><path data-name="Caminho 75211" d="m72.948 45.917.824-4.547h2.973l.875-4.946h5.848l-.874 4.946h3.974l-.824 4.547h-3.876l-1.349 7.32a4.838 4.838 0 0 0-.075 1c0 1.249.749 1.624 1.949 1.624a7.733 7.733 0 0 0 1.649-.225l-.55 4.322a10.144 10.144 0 0 1-3.3.575c-3.6 0-5.821-1.4-5.821-4.547a13.973 13.973 0 0 1 .225-2.148l1.424-7.919h-3.072Z"/><path data-name="Caminho 75212" d="m99.084 60.058 1.77-10.143a9.182 9.182 0 0 0 .175-1.574 2.248 2.248 0 0 0-2.473-2.523c-2.223 0-3.523 1.874-3.947 4.172l-1.8 10.068h-6l5-28.38h6.046l-2.147 12.116h.076a6.69 6.69 0 0 1 5.546-2.923c4.2 0 5.971 2.623 5.971 5.671a10.29 10.29 0 0 1-.2 2.024l-2.025 11.492h-6Z"/><path data-name="Caminho 75213" d="M115.568 52.338a2.2 2.2 0 0 0-.05.35c0 2.1 2.074 3.348 4.122 3.348a5.928 5.928 0 0 0 4.472-1.949l3.797 2.974a11.472 11.472 0 0 1-8.794 3.6c-5.171 0-9.193-2.973-9.193-8.419a11.058 11.058 0 0 1 11.267-11.421c4.922 0 8.244 2.823 8.244 7.869a16.048 16.048 0 0 1-.5 3.647h-13.391Zm8.519-3.677a7.267 7.267 0 0 0 .025-.749c0-1.649-1.2-2.9-3.423-2.9a4.908 4.908 0 0 0-4.721 3.649Z"/><path data-name="Caminho 75214" d="m150.444 38.822-1.024 5.671h9.943l-.9 5.121h-9.943l-1.848 10.442h-6.146l4.7-26.581h16.685l-.924 5.346Z"/><path data-name="Caminho 75215" d="M173.178 57.36a6.991 6.991 0 0 1-5.846 3.2c-4.122 0-5.921-2.7-5.921-5.7a11.56 11.56 0 0 1 .2-2.024l2-11.442h6.046l-1.8 10.143a7.254 7.254 0 0 0-.15 1.574 2.268 2.268 0 0 0 2.473 2.523c2.173 0 3.523-1.9 3.947-4.122l1.8-10.093h6l-2.629 14.816c-.15.924-.45 2.673-.55 3.872h-5.7c.025-.6.2-1.949.3-2.7h-.1Z"/><path data-name="Caminho 75216" d="m183.62 45.917.824-4.547h2.973l.875-4.946h5.848l-.874 4.946h3.974l-.824 4.547h-3.876l-1.349 7.32a4.836 4.836 0 0 0-.075 1c0 1.249.749 1.624 1.949 1.624a7.733 7.733 0 0 0 1.649-.225l-.55 4.322a10.144 10.144 0 0 1-3.3.575c-3.6 0-5.821-1.4-5.821-4.547a13.975 13.975 0 0 1 .225-2.148l1.424-7.919h-3.072Z"/><path data-name="Caminho 75217" d="M209.827 57.36a6.991 6.991 0 0 1-5.846 3.2c-4.122 0-5.921-2.7-5.921-5.7a11.56 11.56 0 0 1 .2-2.024l2-11.442h6.04l-1.8 10.143a7.254 7.254 0 0 0-.15 1.574 2.268 2.268 0 0 0 2.473 2.523c2.173 0 3.523-1.9 3.947-4.122l1.8-10.093h6l-2.623 14.816c-.15.924-.45 2.673-.575 3.872h-5.7c.025-.6.2-1.949.3-2.7h-.1Z"/><path data-name="Caminho 75218" d="M228.713 44.119a5.944 5.944 0 0 1 5.171-3.223 4.691 4.691 0 0 1 1.274.15l-.974 5.321a5.646 5.646 0 0 0-1.5-.175 4.849 4.849 0 0 0-4.947 4.272l-1.7 9.618h-6l2.673-14.815c.2-.949.45-2.673.575-3.872h5.7a25.855 25.855 0 0 1-.35 2.748h.075Z"/><path data-name="Caminho 75219" d="M240.505 52.338s-.025.225-.025.35c0 2.1 2.074 3.348 4.122 3.348a5.928 5.928 0 0 0 4.472-1.949l3.8 2.973a11.472 11.472 0 0 1-8.794 3.6c-5.171 0-9.193-2.973-9.193-8.419a11.058 11.058 0 0 1 11.264-11.42c4.922 0 8.269 2.823 8.269 7.869a17.591 17.591 0 0 1-.5 3.647h-13.39Zm8.519-3.677a7.267 7.267 0 0 0 .025-.749c0-1.649-1.2-2.9-3.423-2.9a4.908 4.908 0 0 0-4.722 3.647Z"/></g></g><g data-name="Componente 3329 – 6"><g data-name="Grupo 44815" clip-path="url(#d)" transform="translate(32.812 125.685)"><path data-name="Caminho 61528" d="M272.322 248.686c-5.271-13.263-1.53-26.356 5.441-35.624-.6 6.377.6 8.927 2.3 13.433a53.667 53.667 0 0 1 1.785-16.919.263.263 0 0 1 .17.085 50.057 50.057 0 0 1 4.676 3.741 65.645 65.645 0 0 1 8.247 8.587 39.178 39.178 0 0 1 5.781 10.458 26.247 26.247 0 0 0-4.081-11.648 39.684 39.684 0 0 0-8.247-9.437 47.426 47.426 0 0 0-5.866-4.336c2.551-8.247 7.4-18.62 16.834-31.033 0 12.668.85 14.709.85 14.709s3.316-21.935 25.081-37.749a86.655 86.655 0 0 0-.6 9.692 129.067 129.067 0 0 1 14.113-17.769 66.989 66.989 0 0 1 18.28-12.923c4.166-1.785 8.417-2.976 3.656 5.441-10.373 17-21.085 42.255-27.972 81.875a68.488 68.488 0 0 0-5.611 4.166 74.863 74.863 0 0 1-7.907 6.036c3.231-1.105 6.036-3.146 8.757-4.931 1.445-1.02 2.891-2.04 4.336-2.976a3.616 3.616 0 0 1-.17.935c-3.4 20.32-13.178 41.235-29.842 46.506-13.688 4.336-26.7-12.158-30.012-20.405" fill="#c70026"/></g><g data-name="Grupo 44816" transform="translate(157.114 338.578)" clip-path="url(#e)"><path data-name="Caminho 61529" d="M223.35 63.595c-23.891-48.632-51.947-44.806-84.851-45.063-28.056-.168-52.372 8.5-79.069 16.921 1.615 9.862 8.077 16.834 12.923 25.591 4.846 8.588 47.442 27.973 58.495 31.288 26.867 8.162 78.9-7.822 92.5-28.737" fill="#00a0e9"/><path data-name="Caminho 61530" d="m199.204 35.881 15.984-32.82-42.766 20.83c9.1 2.806 19.385 6.632 26.7 11.99" fill="#c70026"/><path data-name="Caminho 61531" d="M199.799 36.559c17.939-4.251 22.956-21.935 20.49-34.518 27.207-12.668 32.223 2.126 63.851 3.571 6.377.255 47.952-4 46.847 2.126-.85 4.421-45.231 14.028-51.353 15.389-31.968 7.4-42.34 26.612-60.11 40.385-5.016-12.838-11.9-21-19.725-26.867" fill="#9e4394"/><path data-name="Caminho 61532" d="M186.195 85.361c-6.122-18.62-1.615-34.944 7.992-52.2 12.583 3.143 25.423 26.524 26.523 30.349-.255.255-7.737 8.842-16.409 13.858a139.449 139.449 0 0 1-18.109 8.077" fill="#4659a7"/><path data-name="Caminho 61533" d="m213.232 4.846 7.737-3.486c.255 10.968-.51 20.49-6.462 27.122-4.335 4.846-11.48 8.247-23.04 9.522 4.166-7.4 13.263-27.887 21.765-33.243" fill="#8f1d22"/><path data-name="Caminho 61534" d="M51.948 39.28 40.47 70.48 26.526 98.965l-7.312 23.806-26.356-7.567 17.514-37.835Z" fill="#ef7a00"/><path data-name="Caminho 61535" d="m47.782 48.037 38.77 11.9-26.612 71.676-37.069-7.4 3.656-25.166c.6-18.365 9.862-38.174 21.255-51.013" fill="#eee800"/><path data-name="Caminho 61536" d="M79.409 64.021c9.522 13.093 48.8 26.016 57.219 24.146-1.36-16.069-7.652-41.49-25-52.458-14.194-9.097-35.112-9.182-65.122 10.968a49.8 49.8 0 0 0 32.818 17.344" fill="#40a731"/></g><g data-name="Grupo 44817" clip-path="url(#d)" transform="translate(32.812 125.685)"><path data-name="Caminho 61538" d="M174.72 214.767c15.814 1.36 24.656.51 24.656.51s-34.6-6.036-62.405-36.474a61 61 0 0 0 14.539 1.275 123.7 123.7 0 0 1-23.384-16.328c-12.243-10.712-18.534-19.555-20.49-22.53-3.741-5.7-1.87-8.757 5.441-4.251 25.676 15.984 82.3 39.365 116.734 49.142 26.7 7.652 58.664 21.68 69.122 42.425 9.522 18.875-5.271 34.008-14.284 37.409-14.539 5.441-41.49-6.972-55.689-17.089a535.191 535.191 0 0 0 20.405-2.891c-8.842-.425-34.774-2.211-74.648-31.288" fill="#c70026"/><path data-name="Caminho 61539" d="M352.412 218.759c-.255 1.615 1.7 3.231 4.506 3.656 2.721.425 5.186-.51 5.526-2.126.255-1.615-1.785-3.231-4.506-3.656s-5.186.51-5.441 2.126" fill="#fff"/><path data-name="Caminho 61540" d="M181.518 402.149a11.909 11.909 0 0 0-2.381-2.041 32.192 32.192 0 0 0-3.911-1.87 18.058 18.058 0 0 1 5.1-.255 14.863 14.863 0 0 1 3.061.935 6.741 6.741 0 0 1 1.955-1.785 11.383 11.383 0 0 1 2.806-.85 5.35 5.35 0 0 0-.85 1.956c-.17.935-.255 2.211-.255 2.211a12.1 12.1 0 0 0 4.251.425 37.064 37.064 0 0 0 4-.51 8.107 8.107 0 0 1-2.807 3.228 6.73 6.73 0 0 1-3.061.935 8.95 8.95 0 0 0 .6 1.956c.34.85 1.105 2.211 1.105 2.211a8.874 8.874 0 0 1-3.486-1.275 26.02 26.02 0 0 1-2.555-2.127 11.337 11.337 0 0 1-2.551 1.445 35.541 35.541 0 0 1-4.081.68 21.882 21.882 0 0 0 2.126-2.551 6.449 6.449 0 0 0 1.02-2.806" fill="#ef7a00"/><path data-name="Caminho 61541" d="M146.321 370.776a8.246 8.246 0 0 1 5.611 1.7 21.941 21.941 0 0 1 3.571 4.081 11.944 11.944 0 0 0 2.3-1.53 26.063 26.063 0 0 0 3.057-3.656 58.248 58.248 0 0 1-.255 6.887c-.425 2.891-1.53 3.826-1.53 3.826a11.72 11.72 0 0 1 4.251 3.4 20.747 20.747 0 0 1 3.061 5.866 27.7 27.7 0 0 0-5.271-3.061 21.816 21.816 0 0 0-3.826-.935s-.425 1.615 1.615 5.7c1.105 2.3 5.1 5.951 5.1 5.951a11.1 11.1 0 0 1-9.267-4.081 22.082 22.082 0 0 1-3.571-7.227c-1.53-.17-6.462 1.19-6.377 3.146a12.321 12.321 0 0 1 1.19-5.611 33.429 33.429 0 0 1 4-5.7 15.832 15.832 0 0 0-.765-4 12.749 12.749 0 0 0-3.061-4.931" fill="#ef7a00"/><path data-name="Caminho 61542" d="M132.38 338.723s1.02-3.231 2.3-6.122a38.609 38.609 0 0 1 3.826-6.121s.51 3.911 1.19 6.717a37.567 37.567 0 0 0 2.466 6.972s6.292 4.251 11.733 3.061c-5.526 5.271-9.267 6.717-9.267 6.717a26.759 26.759 0 0 0 1.275 4.676c1.105 2.211 5.526 6.036 5.526 6.036a22.042 22.042 0 0 1-12.328-3.741c-.425-.255-6.632-4.761-5.271-5.611-1.445.85-4.166 6.377-2.211 7.822 0 0-4.081-3.061-3.741-7.992a12.116 12.116 0 0 1 2.3-6.122 11.646 11.646 0 0 1-2.806-2.381c-1.785-2.551-1.7-6.462-1.7-6.462a15.292 15.292 0 0 0 3.911 2.041 7.5 7.5 0 0 0 2.891.34" fill="#ef7a00"/><path data-name="Caminho 61543" d="M166.47 357.768a16.723 16.723 0 0 1-4.846-3.571c-2.891-2.976-4.251-4.591-5.356-7.227 4.421 2.041 7.142 3.061 11.733 3.4.6 0 .34-8.417.765-9.352 0 0 5.781 5.526 6.207 6.207a31.676 31.676 0 0 1 3.486 5.781 17.927 17.927 0 0 1 4.336 1.955 11.565 11.565 0 0 1 4.166 4.931 9.7 9.7 0 0 0-3.573-1.274 6.484 6.484 0 0 0-2.721.17 28.263 28.263 0 0 1 2.551 7.652 28.368 28.368 0 0 1-.6 10.968 37.478 37.478 0 0 0-3.139-8.079 26.454 26.454 0 0 0-4.506-5.356s-1.275 1.785-4.761 2.721c-3.146.85-8.757-.765-8.757-.765a33.819 33.819 0 0 0 3.146-3.571 14.393 14.393 0 0 0 1.955-4.761" fill="#ef7a00"/></g></g></g></svg>